<?xml version="1.0" standalone="no"?>
<!DOCTYPE svg PUBLIC "-//W3C//DTD SVG 1.1//EN" "http://www.w3.org/Graphics/SVG/1.1/DTD/svg11.dtd" >
<svg xmlns="http://www.w3.org/2000/svg">
<metadata>
This is a custom SVG webfont generated by Font Squirrel.
Copyright   : Copyright c Jos Buivenga 2004 All rights reserved
</metadata>
<defs>
<font id="FontinBold" horiz-adv-x="1042" >
<font-face units-per-em="2048" ascent="1638" descent="-410" />
<missing-glyph horiz-adv-x="614" />
<glyph unicode=" "  horiz-adv-x="614" />
<glyph unicode="&#x09;" horiz-adv-x="614" />
<glyph unicode="&#xa0;" horiz-adv-x="614" />
<glyph unicode="!" horiz-adv-x="595" d="M113 1468v39l25 15q25 15 68 30t79 15q112 0 155 -36t43 -110q0 -56 -20 -172q-32 -186 -69 -541l-38 -354h-100l-94 967q-4 51 -16 88t-22 48zM156 111q0 59 42 101t101 42q56 0 96.5 -42t40.5 -101q0 -57 -40.5 -97.5t-96.5 -40.5q-59 0 -101 40.5t-42 97.5z" />
<glyph unicode="&#x22;" horiz-adv-x="786" d="M41 1118q40 36 63.5 95t32 115.5t15.5 109t24 84.5t49 32h148l-23 -165q-30 -210 -186 -271q-25 -9 -71.5 -7t-51.5 7zM369 1118q40 36 63.5 95t31.5 115.5t15.5 109t24.5 84.5t49 32h147l-22 -165q-31 -210 -186 -271q-25 -9 -71.5 -7t-51.5 7z" />
<glyph unicode="#" horiz-adv-x="1441" d="M76 377l16 164q19 -4 56.5 -5.5t119 -2t127.5 -1.5q5 76 23 238h-142q-142 -1 -163 -6l16 164q27 -5 112 -6t191 -2q17 191 17 290q0 38 -8.5 80.5t-8.5 55.5q62 45 105 45q28 0 45.5 -11.5t24.5 -37.5t9 -47.5t2 -61.5q0 -30 -30 -313h241q17 177 17 290q0 38 -8.5 80.5 t-8.5 55.5q61 45 105 45q23 0 39 -9t24.5 -21.5t12.5 -36.5t5 -41.5t1 -49.5q0 -20 -31 -313h121q89 0 120 0.5t77.5 7t68.5 20.5q-9 -56 -32.5 -94t-55 -54.5t-71 -25t-80.5 -7t-84 0.5h-82q-2 -22 -12 -106.5t-15 -129.5h129h60q29 0 54 0.5t48 2.5t42 5t35 8t27 13 q-9 -56 -32.5 -94t-55 -54t-71 -25t-80.5 -7.5t-84 0.5h-86q-21 -195 -29 -377l-174 -39q14 71 23 139.5t18 160.5t12 116h-248q-20 -202 -28 -377l-170 -37q9 95 26.5 228.5t22.5 187.5q-270 0 -303 -6zM545 532h246q5 45 12.5 124.5t11.5 111.5h-244q-16 -152 -26 -236z " />
<glyph unicode="$" horiz-adv-x="937" d="M72 1016q0 69 26.5 134t76.5 118.5t130.5 86.5t179.5 34v143q47 10 78 10q14 0 23.5 -4t14.5 -13.5t7.5 -19.5t2 -26.5t-1.5 -29.5t-3 -34l-2 -35q123 -19 191.5 -77t68.5 -132q0 -36 -16 -86q-3 46 -81 85.5t-179 52.5q-4 -56 -33 -381q48 -30 75 -47.5t71 -50t70 -58 t58 -63t49.5 -73t29.5 -82t12 -95.5q0 -155 -116 -267t-302 -129l-10 -194h-121l14 194q-131 13 -218 77.5t-87 146.5q0 50 33 94q10 -41 59 -76t109 -54.5t118 -25.5l33 416q-49 32 -73.5 49.5t-69.5 51.5t-69.5 58t-57 62t-49 72t-29 78t-12.5 90zM309 1096 q0 -52 37.5 -97t108.5 -94l20 322q-74 -6 -120 -38.5t-46 -92.5zM512 145q68 14 111 55t43 113q0 45 -34.5 86.5t-99.5 89.5q-3 -41 -20 -344z" />
<glyph unicode="%" horiz-adv-x="1787" d="M92 1034q0 162 108 263.5t281 101.5q139 0 229.5 -89t90.5 -249q-3 -156 -113 -261.5t-285 -105.5q-135 0 -223 87.5t-88 252.5zM305 0q534 761 717.5 1032t187.5 320q44 45 109 45q32 0 54 -14.5t22 -41.5q0 -39 -29.5 -87.5t-88.5 -120t-83 -105.5l-709 -1028h-180z M311 1077q0 -128 37.5 -204t104.5 -76q55 0 94 62.5t39 164.5q0 124 -41.5 197t-112.5 73q-56 0 -88.5 -58t-32.5 -159zM956 317q0 162 108 263.5t282 101.5q139 0 229 -89t90 -249q-3 -156 -113 -261.5t-284 -105.5q-135 0 -223.5 87.5t-88.5 252.5zM1176 360 q0 -127 37.5 -203.5t103.5 -76.5q56 0 94.5 62t38.5 165q0 125 -41.5 198t-112.5 73q-55 0 -87.5 -58.5t-32.5 -159.5z" />
<glyph unicode="&#x26;" horiz-adv-x="1554" d="M90 356q0 -165 120 -274t316 -109q100 0 213 37.5t189 102.5q92 -65 189 -100.5t183 -35.5q120 0 183 54.5t63 136.5q-70 -37 -112 -37q-76 0 -154.5 38.5t-196.5 137.5q120 231 140 565q52 -4 73 -4q174 0 174 127q0 29 -4 45q-36 -32 -131 -32h-272l-29 -41 q23 -99 23 -209q0 -211 -74 -355q-207 214 -362 455q26 16 51 33.5t70 51.5t81.5 72t72.5 83.5t56.5 98t20.5 103.5q0 114 -95.5 190.5t-248.5 76.5q-192 0 -310 -100t-118 -257q0 -158 141 -413q-119 -92 -185.5 -206.5t-66.5 -234.5zM315 508q0 116 84 199 q197 -302 426 -512q-67 -56 -172 -56q-143 0 -240.5 111t-97.5 258zM434 1296q0 69 41 105.5t111 36.5q83 0 131.5 -55.5t48.5 -137.5q0 -155 -203 -293q-129 222 -129 344z" />
<glyph unicode="'" horiz-adv-x="425" d="M41 1118q40 36 63.5 95t32 115.5t15.5 109t24 84.5t49 32h148l-23 -165q-30 -210 -186 -271q-25 -9 -71.5 -7t-51.5 7z" />
<glyph unicode="(" horiz-adv-x="688" d="M100 485q0 -181 48.5 -364.5t125.5 -323.5t179 -228.5t204 -88.5l-23 32q-22 32 -55.5 88.5t-73 148t-73 197t-56 248.5t-22.5 291q0 142 22 274t54.5 225.5t71 172t71 125.5t54.5 72l22 26q-118 0 -221.5 -75.5t-174.5 -200.5t-112 -286.5t-41 -332.5z" />
<glyph unicode=")" horiz-adv-x="694" d="M55 -520l23 32q22 32 55.5 88.5t73 148t73 197t56 248.5t22.5 291q0 142 -22 274t-54.5 225.5t-71 172t-71 125.5t-54.5 72l-22 26q157 0 284.5 -129t196 -333t68.5 -433q0 -242 -80.5 -476t-210.5 -381.5t-266 -147.5z" />
<glyph unicode="*" horiz-adv-x="884" d="M12 1096q31 172 283 172h4q-44 91 -89 159.5t-65 75.5q41 13 68 13q124 0 219 -168l4 6q125 197 125 250q0 1 -1 3t-1 3q72 -58 72 -148q0 -83 -60 -184l-12 -18h144q63 0 107 3.5t56 12.5q-14 -89 -82 -130.5t-163 -41.5h-58q28 -50 53.5 -93.5t45.5 -77t37 -55 t28 -26.5q-37 -12 -72 -12q-61 0 -112.5 38.5t-87.5 102.5l-29 51l-2 2q-127 -221 -127 -258q-72 61 -72 150q0 77 43 151l21 35q-37 2 -103 2q-150 0 -174 -18z" />
<glyph unicode="+" horiz-adv-x="964" d="M98 438v164q52 -8 299 -8v51v59q0 28 -0.5 52.5t-2 46.5t-4 39.5t-7 31.5t-10.5 23q52 16 88 16q30 0 49.5 -8.5t28.5 -27.5t11.5 -38.5t2.5 -50.5v-45q0 -7 -1 -51t-1 -98h67q46 -1 88 -0.5t75 2.5t60 8.5t44 18.5q-9 -57 -33 -94.5t-55.5 -54t-71 -25.5t-80.5 -7.5 t-84 0.5h-12q-2 -96 -2 -266q0 -26 6 -51h-164q8 24 8 317q-41 0 -113 1t-94 1q-54 0 -92 -6z" />
<glyph unicode="," horiz-adv-x="456" d="M55 -225q67 63 98 125.5t31 113.5q0 28 -5.5 46.5t-16.5 26t-17 10t-16 3.5q-8 49 32.5 101.5t102.5 52.5q61 0 103.5 -41t42.5 -117q0 -80 -78 -186.5t-226 -200.5z" />
<glyph unicode="-" horiz-adv-x="632" d="M39 422v162q0 -9 262 -9q93 0 136.5 0.5t89 5.5t59.5 15q-3 -32 -10.5 -57.5t-22 -43.5t-29 -31t-39 -21t-43 -13t-50.5 -7t-52 -2.5t-57 -0.5q-27 0 -109.5 2t-95.5 2q-31 0 -39 -2z" />
<glyph unicode="." horiz-adv-x="528" d="M127 111q0 59 42.5 101t100.5 42q56 0 97 -42t41 -101q0 -57 -41 -97.5t-97 -40.5q-58 0 -100.5 40.5t-42.5 97.5z" />
<glyph unicode="/" horiz-adv-x="618" d="M-59 -500q178 709 284.5 1216.5t106.5 618.5v13q13 21 49 42t86 21q88 0 88 -74q0 -46 -23 -123q-59 -221 -203 -856t-188 -858h-200z" />
<glyph unicode="0" horiz-adv-x="1226" d="M92 578q0 -156 38 -275.5t105 -190.5t150 -106t180 -35q176 0 307.5 89.5t197 236t65.5 328.5q0 149 -37 265t-102.5 188.5t-152 109.5t-188.5 37q-170 0 -299 -84.5t-196.5 -231t-67.5 -331.5zM352 662q2 170 67.5 292.5t160.5 122.5q125 0 207.5 -148.5t82.5 -381.5 q0 -191 -72 -318.5t-169 -130.5q-79 1 -141.5 74.5t-97.5 201t-38 288.5z" />
<glyph unicode="1" horiz-adv-x="710" d="M31 1055l395 174h43l61 -103l-3 -64q-3 -65 -3 -87l4 -811q0 -78 19 -164h-277l2 80l9 784q3 80 -21 117l-182 -57z" />
<glyph unicode="2" horiz-adv-x="950" d="M72 0v96l32 33q34 36 74.5 74.5t85.5 89t88 101.5t82 113t68.5 123.5t47 132.5t17.5 140q0 39 -7 72.5t-23 63t-45 46.5t-70 17q-63 0 -103.5 -37t-29.5 -96q-36 -41 -90 -41q-47 0 -80 27.5t-33 76.5q0 88 106.5 140.5t253.5 52.5q107 0 188 -26t126 -70.5t66.5 -96 t21.5 -108.5q0 -83 -40 -177.5t-100 -174.5t-130.5 -156t-130.5 -129t-100 -85l-40 -32h377q89 0 130.5 8t64.5 37q10 -37 10 -74q0 -136 -182 -141h-635z" />
<glyph unicode="3" horiz-adv-x="958" d="M31 -57q61 -9 96 -9q72 0 145 21t139.5 62t111.5 111t52 159q-1 69 -19.5 121t-43.5 82t-64.5 51t-69.5 29.5t-71 15.5l29 61q92 42 155.5 119t63.5 160q0 79 -40 127.5t-107 48.5q-43 0 -82 -30.5t-39 -80.5q0 -14 2 -22q-38 -41 -92 -41q-45 0 -78 29t-33 79 q0 76 101 132.5t241 56.5q103 0 182 -24.5t123 -64.5t66 -85.5t22 -94.5q0 -173 -243 -301q60 -11 106.5 -30t90 -54.5t67.5 -97.5t24 -147q0 -102 -42 -187t-109.5 -141t-156.5 -95t-181 -56t-184 -17q-42 0 -74 11.5t-48 28t-26 33.5t-12 29z" />
<glyph unicode="4" horiz-adv-x="1071" d="M51 225q32 96 103.5 245t156.5 292q99 166 198.5 297t158.5 170h163l-4 -96l-3 -68q-3 -68 -3 -90v-613q60 0 90 1.5t66 12t53 32.5q10 -38 10 -76q0 -56 -44 -97.5t-134 -41.5q-6 0 -18.5 1t-20.5 1q0 -70 -0.5 -131t4.5 -124t17 -108h-269l7 361h-500zM279 362h296 l13 469q1 35 10 95l8 59q-90 -120 -184 -303q-84 -158 -143 -320z" />
<glyph unicode="5" horiz-adv-x="960" d="M82 -57q62 -9 96 -9q57 0 111 13.5t103.5 43t86.5 72t60.5 105.5t25.5 139q0 88 -22 154t-58.5 102t-74 54t-78.5 24q-87 14 -180 -4l-23 37l37 500l33 24h403q115 0 160.5 7t71.5 38q7 -32 9.5 -56.5t-4.5 -56t-26.5 -52t-61.5 -35t-104 -15.5h-344l-8 -258q41 5 87 1.5 t92.5 -10t93 -23t88.5 -38t77.5 -56.5t62 -76.5t41.5 -98.5t15 -123q0 -102 -36 -188.5t-96.5 -146t-140.5 -101t-167.5 -61t-178.5 -19.5q-50 0 -84 17.5t-46.5 39t-16.5 39.5z" />
<glyph unicode="6" horiz-adv-x="1167" d="M131 580q0 -90 15.5 -174.5t50.5 -164t86.5 -138.5t129 -94.5t171.5 -35.5q148 0 261 73t169.5 188.5t56.5 252.5q0 98 -30 173t-83.5 119.5t-119.5 66.5t-144 22q-132 0 -272 -82q22 228 112 345.5t205 117.5q74 0 160 -36t131 -103q32 83 -9.5 148.5t-128.5 98 t-194 32.5q-54 0 -108 -12.5t-110.5 -42t-107 -73t-95 -109t-76.5 -146.5t-51 -190.5t-19 -235.5zM416 643v55q20 13 76.5 27t99.5 14q97 0 151 -87t54 -244q0 -147 -43 -228.5t-121 -81.5q-59 0 -103.5 49.5t-68 132t-34.5 173.5t-11 190z" />
<glyph unicode="7" horiz-adv-x="933" d="M61 1169q0 -30 7.5 -58.5t28.5 -59t54 -52.5t89.5 -36.5t130.5 -14.5q207 0 293 56l-400 -910q-52 -118 -84.5 -162t-62.5 -57q59 -45 129 -45q108 0 164 127l524 1208l-33 33h-612h-74q-116 0 -145 37q-9 -36 -9 -66z" />
<glyph unicode="8" horiz-adv-x="1120" d="M123 305q0 122 86.5 229t196.5 154q-104 73 -171 167t-67 183q0 157 115.5 254t312.5 97q162 0 261 -74.5t99 -194.5q0 -178 -247 -334q58 -43 97 -73.5t87 -75t76.5 -82.5t48.5 -84.5t20 -91.5q0 -117 -65.5 -210t-178.5 -144.5t-251 -51.5q-183 0 -301.5 93.5 t-118.5 238.5zM338 369q0 -52 11 -96.5t35.5 -84t69.5 -62t107 -22.5q74 0 138.5 57t64.5 146q0 42 -27 87t-69.5 83t-94 79.5t-100.5 76.5q-64 -35 -99.5 -105t-35.5 -159zM426 1106q0 -68 55 -131.5t152 -136.5q42 28 73 90t31 149q0 89 -44 139t-120 50 q-66 0 -106.5 -42.5t-40.5 -117.5z" />
<glyph unicode="9" horiz-adv-x="1183" d="M113 713q0 -98 30 -173t83 -119.5t119.5 -66.5t143.5 -22q130 0 273 82q-22 -228 -112 -345.5t-206 -117.5q-74 0 -159.5 36t-130.5 103q-25 -65 -6.5 -116.5t68 -87.5t120 -55t149.5 -19q77 0 153 25t152 85.5t133.5 150.5t93.5 231.5t36 316.5q0 89 -15.5 173.5 t-50.5 164t-86.5 138.5t-129 94.5t-171.5 35.5q-148 0 -261 -73t-169.5 -188.5t-56.5 -252.5zM387 793q0 146 43 227.5t121 81.5q59 0 103.5 -49.5t68 -132t34.5 -173.5t11 -190v-55q-21 -13 -77.5 -27t-98.5 -14q-97 0 -151 87t-54 245z" />
<glyph unicode=":" horiz-adv-x="528" d="M127 111q0 59 42.5 101t100.5 42q56 0 97 -42t41 -101q0 -57 -41 -97.5t-97 -40.5q-58 0 -100.5 40.5t-42.5 97.5zM127 662q0 59 42.5 101t100.5 42q56 0 97 -42t41 -101q0 -57 -41 -97.5t-97 -40.5q-58 0 -100.5 40.5t-42.5 97.5z" />
<glyph unicode=";" horiz-adv-x="528" d="M55 -225q67 63 98 125.5t31 113.5q0 28 -5.5 46.5t-16.5 26t-17 10t-16 3.5q-8 49 32.5 101.5t102.5 52.5q61 0 103.5 -41t42.5 -117q0 -80 -78 -186.5t-226 -200.5zM127 662q0 59 42.5 101t100.5 42q56 0 97 -42t41 -101q0 -57 -41 -97.5t-97 -40.5q-58 0 -100.5 40.5 t-42.5 97.5z" />
<glyph unicode="&#x3c;" horiz-adv-x="755" d="M39 506l21 -16q20 -16 36 -35l271 -322q51 -57 153.5 -82t190.5 -6q-28 12 -64 44t-43 42l-231 313q-16 21 -45 42l-29 22l29 20q30 21 41 35l227 303l45 45q45 45 66 52q-89 19 -193 -6t-156 -85l-266 -319q-11 -13 -32 -30z" />
<glyph unicode="=" horiz-adv-x="983" d="M92 266v166q0 -8 529 -8h102q48 0 85 1t62.5 5t34.5 10q-28 -174 -303 -174q-27 0 -243.5 1t-229.5 1q-29 0 -37 -2zM92 588v166q0 -9 529 -9h102q48 0 85 1t62.5 5t34.5 11q-28 -174 -303 -174q-27 0 -243.5 1t-229.5 1q-29 0 -37 -2z" />
<glyph unicode="&#x3e;" horiz-adv-x="755" d="M39 45q28 12 63.5 44t42.5 42l232 313q15 21 45 42l29 22l-30 20q-30 21 -40 35l-227 303l-45 45q-45 45 -66 52q89 19 192.5 -5.5t155.5 -85.5l266 -319q12 -13 33 -30l21 -17l-21 -16q-20 -16 -37 -35l-270 -322q-51 -57 -153.5 -82t-190.5 -6z" />
<glyph unicode="?" horiz-adv-x="901" d="M20 1317q0 76 52.5 133.5t139 87t191.5 29.5q198 0 308 -103t110 -252q0 -73 -26 -146.5t-68 -133.5t-92.5 -117.5t-100.5 -105.5t-92 -89.5t-68 -78.5t-26 -64t11 -52t18 -36l-53 -35q-151 66 -154 201q-1 59 21 115.5t57.5 102.5t78.5 91.5t86 90.5t79 90.5t58.5 101 t22.5 113.5q0 68 -42 124t-128 56q-51 0 -99 -36.5t-48 -100.5q0 -24 8 -58q-40 -53 -102 -53q-60 0 -101 35.5t-41 89.5zM190 111q0 59 42.5 101t101.5 42q56 0 96.5 -42t40.5 -101q0 -57 -40.5 -97.5t-96.5 -40.5q-59 0 -101.5 40.5t-42.5 97.5z" />
<glyph unicode="@" horiz-adv-x="1847" d="M90 406q0 193 71.5 369t192.5 304t288 203.5t349 75.5q214 0 385.5 -94t268 -260.5t96.5 -372.5q0 -179 -64.5 -335.5t-184 -253.5t-267.5 -97q-79 0 -141.5 53t-63.5 133q-46 -70 -112 -112t-138 -42q-91 0 -168 57.5t-120.5 153t-43.5 203.5q0 190 83.5 341t224.5 233 t311 82q87 0 223 -41q-38 -600 -29 -838q2 -56 36.5 -70.5t77.5 6t73 58.5q56 74 94.5 184t38.5 232q0 129 -51 246.5t-136 202t-201 135t-241 50.5q-185 0 -336.5 -98t-238 -271.5t-86.5 -387.5q0 -280 149 -473.5t381 -235.5q94 -11 139 18q-11 -50 -33 -83.5t-53 -49.5 t-61 -22t-68 -6q-90 0 -175.5 33t-155.5 90t-129 135t-99.5 166.5t-63 186t-22.5 192.5zM686 426q0 -111 56 -196t126 -85q61 0 127 80l27 709q-37 -4 -75 -17.5t-87 -49.5t-86 -89t-62.5 -144.5t-25.5 -207.5z" />
<glyph unicode="A" horiz-adv-x="1263" d="M-10 0l461 1182q26 101 113.5 155.5t219.5 63.5q20 -104 47 -180l365 -1045q40 -115 78 -176h-328l-4 33q-4 33 -16 67l-121 344h-469l-146 -411l-6 -33h-194zM383 580h373l-185 526z" />
<glyph unicode="B" horiz-adv-x="1169" d="M154 1315l16 43l395 10h23q94 0 170 -22q86 -25 136.5 -69t77.5 -97.5t27 -112.5q0 -166 -202 -291q290 -87 290 -354q0 -193 -142 -307.5t-382 -114.5h-321h-43l6 147v940q0 83 -9.5 134t-17.5 64t-24 30zM487 811h70q81 0 137 -12q29 33 48.5 94.5t19.5 114.5 q0 94 -56 162q-54 65 -141 65h-8l-59 -2v-47q0 -57 -5.5 -188.5t-5.5 -186.5zM489 696q-5 -151 -5 -276q0 -177 10 -301h88q124 0 189 69t65 166q0 161 -86.5 247.5t-219.5 92.5z" />
<glyph unicode="C" horiz-adv-x="1277" d="M86 649q0 325 192.5 530t503.5 205q145 0 267 -52t159 -128q0 -39 -44 -110.5t-109 -100.5l-39 31q0 17 -11.5 43t-34.5 56.5t-53 56.5t-72 43.5t-87 17.5q-92 0 -163.5 -41.5t-114.5 -113.5t-65 -160.5t-22 -188.5q0 -123 26 -230t76.5 -190t131.5 -130.5t184 -47.5 q102 0 220.5 59.5t170.5 159.5q14 -40 14 -79q0 -63 -38 -119q-60 -91 -184 -140q-119 -47 -261 -47h-12q-202 0 -346.5 86.5t-216.5 237.5t-72 352z" />
<glyph unicode="D" horiz-adv-x="1417" d="M154 1317l16 43l496 10h15q95 0 185 -23q96 -25 181 -78t148 -129t99.5 -184t36.5 -235q0 -152 -47 -284.5t-131.5 -229t-208 -152t-270.5 -55.5h-473q4 70 4 106v967q0 55 -2 90t-14 80.5t-35 73.5zM489 514q0 -187 7 -381h202q61 0 119 32t105.5 91t76.5 152.5 t29 205.5q0 173 -60.5 315t-165.5 222q-100 76 -219 76h-12l-71 -2q0 -29 -5.5 -299.5t-5.5 -411.5z" />
<glyph unicode="E" horiz-adv-x="1052" d="M154 1317l16 43h342l377 6q35 -52 41 -120l2 -30q0 -51 -17 -98h-47q-9 44 -67 75t-123 34l-180 8q-13 -236 -13 -469h256q31 0 48 1t41.5 10t41.5 26q7 -38 7 -70q0 -127 -187 -127q-38 0 -108 2t-101 2v-54q0 -111 3 -238l3 -160h359q70 0 102 43q6 -43 6 -68 q0 -76 -55 -104.5t-176 -28.5h-524l2 150v937q-2 83 -8 126t-13 58.5t-28 45.5z" />
<glyph unicode="F" horiz-adv-x="995" d="M154 1317l16 43h342l377 6q35 -52 41 -120l2 -30q0 -51 -17 -98h-47q-9 44 -67 75t-123 34l-180 8q-13 -236 -13 -469h256q31 0 48 1t41.5 10t41.5 26q7 -38 7 -70q0 -127 -187 -127q-38 0 -108 2t-101 2v-54q0 -111 3 -238l3 -160l5 -64q4 -63 14 -94h-309l4 150v937 q-2 83 -8 126t-13 58.5t-28 45.5z" />
<glyph unicode="G" horiz-adv-x="1368" d="M86 649q0 325 192.5 530t503.5 205q145 0 267 -52t159 -128q0 -39 -44 -110.5t-109 -100.5l-39 31q0 17 -11.5 43t-34.5 56.5t-53 56.5t-72 43.5t-87 17.5q-92 0 -163.5 -41.5t-114.5 -113.5t-65 -160.5t-22 -188.5q0 -98 16 -188t50 -168t82.5 -135t117.5 -90t152 -33 q36 0 100 11l64 11v156q0 73 -9.5 119t-17 58t-28.5 38l16 45l22 7q23 8 66.5 15t85.5 7q94 0 150 -27q-11 -172 -15 -330l-2 -188q-41 0 -96 -12q-56 -11 -117 -24t-151 -24.5t-164 -11.5q-298 0 -463.5 185t-165.5 491z" />
<glyph unicode="H" horiz-adv-x="1589" d="M154 1317l16 43l24 7q25 7 70.5 14.5t87.5 7.5q103 0 158 -27q-15 -324 -21 -606h609q2 149 2 344q0 71 -10 118t-18.5 61.5t-27.5 37.5l17 43l24 7q24 7 69 14.5t87 7.5q102 0 160 -27q-21 -481 -21 -811q0 -500 25 -551h-301q-8 47 -8 129q0 54 1 218.5t1 268.5h-609 v-77q0 -486 25 -539h-309q4 136 4 1100q0 55 -5 94t-13 58.5t-17.5 36.5t-19.5 28z" />
<glyph unicode="I" horiz-adv-x="698" d="M154 1317l16 43l24 7q25 7 70.5 14.5t87.5 7.5q103 0 158 -27q-21 -374 -21 -811q0 -498 25 -551h-309q4 136 4 1100q0 55 -5 94t-13 58.5t-17.5 36.5t-19.5 28z" />
<glyph unicode="J" horiz-adv-x="677" d="M-252 -242q0 45 36.5 75t90.5 30q35 0 66 -15q5 -33 32 -57t60 -24q94 0 131 89t37 281q0 881 -4 963q0 45 -3 78.5t-8.5 54t-13 37t-15.5 26t-16 21.5l17 43l24 7q25 7 70.5 14.5t87.5 7.5q102 0 158 -27q-21 -340 -21 -811q0 -26 1 -99.5t1 -115.5v-205 q0 -101 -31.5 -187t-84.5 -146t-121.5 -102.5t-142.5 -62.5t-148 -20q-98 0 -150.5 41.5t-52.5 103.5z" />
<glyph unicode="K" horiz-adv-x="1302" d="M154 1317l16 43l24 7q25 7 70.5 14.5t87.5 7.5q103 0 158 -27q-13 -229 -21 -629l416 459q37 42 37 88q0 28 -10 43l14 37q22 12 73 20.5t105 8.5q98 0 144 -27q-43 -103 -142 -199l-405 -379q138 -192 357.5 -481.5t244.5 -302.5h-373q-81 132 -225.5 344.5 t-235.5 325.5v-119q0 -498 25 -551h-309q4 136 4 1100q0 55 -5 94t-13 58.5t-17.5 36.5t-19.5 28z" />
<glyph unicode="L" horiz-adv-x="997" d="M154 1317l16 43l24 7q25 7 70.5 14.5t87.5 7.5q103 0 158 -27q-21 -374 -21 -811q0 -303 7 -418h204q76 0 146.5 32t79.5 77h49q17 -40 17 -89q0 -19 -3 -39q-9 -72 -43 -114h-741q4 136 4 1100q0 55 -5 94t-13 58.5t-17.5 36.5t-19.5 28z" />
<glyph unicode="M" horiz-adv-x="1890" d="M178 1317l19 43q82 29 182 29q121 0 170 -35q34 -135 176 -501t242 -591q49 127 117 328t92 262l165 438q9 22 31.5 37.5t47.5 24t66 14t68.5 7.5t75 4t66.5 3q-11 -199 -11 -480q0 -328 15 -769q5 -90 16 -131h-309l2 133q0 36 1 103t1 98q0 470 -4 563l-6 117l-33 -115 l-311 -762q-10 -30 -27.5 -96t-25.5 -92l-113 26q-80 18 -123.5 66.5t-56.5 95.5q-196 471 -342 871q4 -100 4 -205q-5 -538 -11 -686q0 -71 11 -117h-185l5 43q18 334 49 1200q-15 27 -30 45t-22 21.5t-12 7.5z" />
<glyph unicode="N" horiz-adv-x="1593" d="M162 1317l16 43q23 15 85 25q39 6 72 6q20 0 38 -2q63 -76 403 -452.5t385 -424.5q27 -29 55 -94l29 -66l-8 66q-8 65 -8 92v-1q0 -1 0.5 1.5t1 15.5t0.5 35.5t0.5 67.5t1 105t0.5 154v210q0 139 -68 219l19 43q15 10 60 19.5t77 9.5q60 0 92 -25q-24 -544 -24 -973 q0 -231 10 -391h-178l-762 840l-37 57q-38 57 -47 80q6 -35 6 -100q0 -50 -2 -143t-2 -144q0 -429 20 -590h-180v33q2 266 2 731v342q0 80 -12 124t-45 87z" />
<glyph unicode="O" horiz-adv-x="1431" d="M82 657q0 -131 32 -243.5t86 -192t126 -136.5t152.5 -84.5t164.5 -27.5q210 0 370.5 97t246 262t90.5 373q0 163 -46.5 294t-127 214t-186 127t-226.5 44q-195 0 -350.5 -91.5t-243.5 -257.5t-88 -378zM385 723q0 141 39.5 258.5t110.5 186.5t157 69q93 0 174 -80.5 t129.5 -219.5t48.5 -302q0 -217 -87 -367.5t-216 -150.5q-97 0 -180 86.5t-129.5 225.5t-46.5 294z" />
<glyph unicode="P" horiz-adv-x="1165" d="M154 1317l16 43l438 10q5 0 11 1q63 0 123 -12q65 -12 127.5 -43.5t109.5 -79t75.5 -122t28.5 -168.5q0 -125 -72 -225.5t-191 -155.5t-257 -55q-24 0 -78 4q0 -412 21 -514h-303l2 80v1v1v1v2v1v1v1v1v1v1v2v1v1v1v1v1v2v1v1v1v1v1v2v1v1v1v1v2v1v1v1v1v1v2v1v1v1v1v2v1 v1v1v1v2v1v1v1v2v1v1v1v1v2v1v1v1v2v1v1v1v1v2v1v1v1v2v1v1v1v2v1v1v1v2v1v1v1v2v1v1v1v2v1v1v2v1v1v1v2v1v1v1v2v1v1v2v1v1v1v2v1v1v2v1v1v2v1v1v1v2v1v1v2v1v1v2v1v1v2v1v1v2v1v1v2v1v1v1v2v1v1v2v1v2v1v1v2v1v1v2v1v1v2v1v1v2v1v1v2v1v1v2v1v2v1v1v2v1v1v2v1v2v1v1v2v1v1 v2v1v2v1v1v2v1v2v1v1v2v1v2v1v1v2v1v2v1v1v2v1v2v1v2v1v1v2v1v2v1v1v2v1v2v1v2v1v1v2v1v2v1v2v1v2v1v1v2v1v2v1v2v1v2v1v2v1v1v2v1v2v1v2v1v2v1v2v1v2v1v2v1v1v2v1v2v1v2v1v2v1v2v1v2v1v2v1v2v1v2v1v2v1v2v1v2v1v2v1v2v1v2v1v2v1v2v2v1v2v1v2v1v2v1v2v1v2v1v2v1v2v1v2v2v1v2 v1v2v1v2v1v2v1v2v2v1v2v1v2v1v2v2v1v2v1v2v1v2v1v2v2v1v2v1v2v2v1v2v1v2v1v2v2v1v2v1v2v2v1v2v1v2v2v1v2v1v2v2v1v2v1v2v2v1v2v1v2v2v1v2v2v1v2v1v2v2v1v2v2v1v2v1v2v2v1v2v2v1v2v2v1v2v2v1v2v1v2v2v1v2v2v1v2v2v1v2v2v1v2v2v1v2v2v1v2v2v1v2v2v1v2v2v1v2v2v2v1v2v2v1v2v2v1 v2v2v1v2v2v2v1v2v2v1v2v2v1v2v2v2v1v2v2v1v2v2v2v1v2v2v2v1v2v2v1v2v2v2v1v2v2v2v1v2v2v2v1v2v2v2v1v2v2v2v1v2v2v2v1v2v2v2v1v2v2v2v1v2v2v2v2v1v2v2v2v1v2v2v2v2v1v2v2v2v2v1v2v2v2v2v1v2v2v2v2v1v2v2v2v2v1v2v2v2v2v2v1v2v2v2v2v1v2v2v2v2v2v2v1v2v2v2v2v2v1v2v2v2v2v2v2 v1v2v2v2v2v2v2v1v2v2v2v2v2v2v2v1v2v2v2v2v2v2v2v2v1v2v2v2v2v2v2v2v2v2v2v1v2v2v2v2v2v2v2v2v2v2v2v2v2v2v1v2v2v2v2v2v2v2v2v2v2v2v2v2v2v2v2v2v2v2v2v2v2v2v2v2v2v2v2v2v2v2v2v3v2v2v2v2v2v2v10q0 160 -51 223zM485 637q25 -6 76 -6q126 0 194 78t68 190 q0 67 -17.5 127.5t-51.5 109t-91 76.5q-50 24 -110 24q-9 0 -18 -1l-41 -2q-3 -31 -7 -346z" />
<glyph unicode="Q" horiz-adv-x="1431" d="M82 657q0 -129 30.5 -239.5t83.5 -190t123 -136.5t148.5 -86t161.5 -32q13 -107 77 -191t152.5 -126.5t183.5 -42.5q124 0 192 40t116 132q-43 -18 -136 -18q-127 0 -241 57.5t-185 163.5q169 30 296 131t194 252t72 334q0 163 -46.5 294t-127 214t-186 127t-226.5 44 q-195 0 -350.5 -91.5t-243.5 -257.5t-88 -378zM385 723q0 141 39.5 258.5t110.5 186.5t157 69q93 0 174 -80.5t129.5 -219.5t48.5 -302q0 -217 -87 -367.5t-216 -150.5q-97 0 -180 86.5t-129.5 225.5t-46.5 294z" />
<glyph unicode="R" horiz-adv-x="1259" d="M154 1315l16 43l438 10q5 0 11 1q63 0 123 -12q65 -12 128 -43t109.5 -78t75 -121.5t28.5 -168.5q0 -131 -78.5 -234t-207.5 -157q28 -22 53 -51l258 -316l172 -188h-360q-24 54 -64 115.5t-93 127t-94.5 113t-99.5 111.5q-21 25 -41 43q-7 1 -21.5 2t-21.5 2 q0 -412 21 -514h-303l2 80v1012q0 160 -51 223zM485 637q25 -6 76 -6q126 0 194 78t68 190q0 67 -17.5 127t-51.5 108.5t-90 75.5q-49 24 -111 24q-9 0 -18 -1l-41 -2q-3 -32 -7 -344z" />
<glyph unicode="S" horiz-adv-x="1013" d="M92 1006q0 71 26.5 138.5t77 122.5t131.5 88.5t181 33.5q65 0 122.5 -10t107 -31t72.5 -32.5t60 -33.5q9 -23 9 -72q0 -108 -62 -170l-47 11q-21 66 -73 114t-107 68t-105 20q-42 0 -80.5 -12.5t-69 -47.5t-30.5 -89q0 -52 35 -99.5t91.5 -86.5t124.5 -79.5t135.5 -87 t124 -98.5t91.5 -123.5t35 -154.5q0 -168 -135.5 -285t-347.5 -117q-150 0 -254.5 68.5t-104.5 159.5q0 47 33 94q19 -66 122.5 -112t195.5 -46q42 0 80.5 8t75 26.5t58 54t21.5 85.5q0 44 -33 87t-85 80.5t-115.5 77.5t-127 86t-115.5 97.5t-85 120.5t-33 146z" />
<glyph unicode="T" horiz-adv-x="1146" d="M2 1206q2 -38 14 -88h47q7 47 56.5 78t122.5 31h180q10 -48 10 -127q0 -964 -4 -1100h309q-24 51 -24 551q0 406 12 676h180q73 0 122.5 -31t55.5 -78h47q12 50 15 88q1 8 1 16q0 32 -10 68q-12 46 -44 84l-312 -14h-413l-312 14q-32 -38 -44 -84q-10 -38 -10 -70 q1 -8 1 -14z" />
<glyph unicode="U" horiz-adv-x="1480" d="M147 1317l17 43l24 7q25 7 70.5 14.5t87.5 7.5q103 0 158 -27q-21 -410 -21 -875q0 -92 27 -162.5t73.5 -111.5t102.5 -61.5t119 -20.5q82 0 156.5 32.5t124.5 97t51 145.5l6 692v9q0 77 -17 121q-18 48 -51 89l19 43q15 10 60 19.5t77 9.5q60 0 92 -25 q-25 -567 -25 -907q0 -120 -44 -213.5t-122.5 -152t-182.5 -88.5t-230 -30q-100 0 -191 30t-165 87.5t-118 153.5t-44 217q0 21 1 300t1 339q0 45 -3 78.5t-8.5 54t-13 37t-15.5 26t-16 21.5z" />
<glyph unicode="V" horiz-adv-x="1306" d="M10 1317q7 -2 19.5 -14.5t33.5 -41.5t48.5 -91t54.5 -146l317 -887q6 -20 17.5 -41.5t32 -46.5t54.5 -45t77 -29l129 -26l55 188l393 944q22 54 42.5 139t23.5 140q-59 29 -125 29q-60 0 -133 -29l-13 -33q45 -48 45 -119q0 -40 -26 -129q-35 -109 -154.5 -408 t-155.5 -446q-63 156 -194 543t-170 575q-51 46 -168 46q-99 0 -184 -29z" />
<glyph unicode="W" horiz-adv-x="1980" d="M10 1317q7 -2 19.5 -14.5t33.5 -41.5t48.5 -91t54.5 -146q43 -124 142.5 -429.5t154.5 -457.5q13 -48 56.5 -96.5t123.5 -65.5l129 -26l55 188l189 545q106 -332 182 -545q13 -48 56.5 -96.5t123.5 -65.5l129 -26l56 188l346 944q21 54 41.5 141.5t23.5 141.5 q-26 9 -54.5 17t-55.5 8q-67 0 -142 -29l-12 -33q45 -48 45 -119q0 -40 -26 -129q-24 -75 -88.5 -266t-108 -330.5t-72.5 -257.5q-51 126 -177.5 525.5t-166.5 592.5q-51 46 -168 46q-99 0 -184 -29l-19 -43q7 -2 19.5 -14.5t33.5 -41.5t48.5 -91t54.5 -146l35 -104 q-41 -127 -77 -237t-73.5 -235t-60.5 -223q-52 128 -178.5 526.5t-165.5 591.5q-51 46 -168 46q-99 0 -184 -29z" />
<glyph unicode="X" horiz-adv-x="1130" d="M12 0l72 100l371 541l-211 379q-23 42 -52 95t-40.5 73.5t-28 47.5t-27 38t-24.5 22.5t-33 20.5l18 43q84 29 189 29q114 0 160 -46q11 -25 32.5 -74.5t35.5 -77.5t58 -110.5t117 -212.5l4 12q4 13 15 29l114 172q68 101 68 160q0 48 -27 78l19 41q60 29 133 29 q71 0 131 -29q-9 -56 -53.5 -140.5t-91.5 -152.5l-242 -350l311 -570q24 -43 68 -95l43 -52h-344l-262 494l-37 -64l-213 -319q-19 -36 -32 -73l-13 -38h-228z" />
<glyph unicode="Y" horiz-adv-x="1103" d="M0 1317l18 43q68 33 177 33q131 0 170 -50q37 -103 138.5 -303.5t135.5 -261.5l9 28q10 28 24 52l153 277q27 48 27 92t-29 90l19 43q62 24 131 24q57 0 117 -36q0 -36 -37 -129t-74 -152l-254 -401q0 -36 -1 -144t-1 -170q0 -245 16 -352h-295v33q0 84 1 200t1 150 q0 199 -2 233q-13 14 -43 64l-196 344q-27 49 -57.5 106t-43 80t-30.5 49t-34 37.5t-40 20.5z" />
<glyph unicode="Z" horiz-adv-x="1181" d="M10 53l56 68l641 1032l59 66h-459q-72 0 -121 -31t-55 -78h-49q-14 42 -16 86v14q0 37 12 78q14 48 43 86l311 -14h715l8 -47l-21 -27q-22 -28 -36 -51l-637 -1014l-58 -67h508q73 0 121.5 30.5t54.5 77.5h50q15 -41 15 -91q0 -19 -2 -41q-8 -76 -52 -130h-1084z" />
<glyph unicode="[" horiz-adv-x="507" d="M-6 -141v1624h422v-119h-191v-1387h191v-118h-422z" />
<glyph unicode="\" horiz-adv-x="657" d="M14 1346q0 -15 5 -35.5t14 -49t12 -38.5q60 -223 205.5 -862.5t187.5 -858.5h201q-178 707 -285.5 1218t-107.5 623q-13 21 -55.5 45.5t-79.5 24.5q-97 0 -97 -67z" />
<glyph unicode="]" horiz-adv-x="509" d="M39 -23v-118h422v1624h-422v-119h190v-1387h-190z" />
<glyph unicode="^" horiz-adv-x="1277" d="M102 645l445 815h180l447 -815h-222l-313 592l-320 -592h-217z" />
<glyph unicode="_" horiz-adv-x="966" d="M0 -143h1042l-79 -144h-963v144z" />
<glyph unicode="`" horiz-adv-x="692" d="M78 1503l90 -155q118 -191 311 -191q35 0 76 18.5t41 26.5q-36 12 -65 31t-51.5 47t-34.5 47t-31 53q-17 32 -29 49t-31.5 37t-46 28.5t-61.5 8.5h-168z" />
<glyph unicode="a" d="M55 244q0 97 60.5 170t157.5 110t214 37q63 0 125 -16q4 86 4 127q0 61 -5.5 105.5t-20.5 84.5t-45.5 61t-75.5 21q-67 0 -103 -47q-26 -34 -26 -79q0 -17 4 -36q-54 -43 -115 -43q-49 0 -83.5 30t-34.5 79q0 95 109 156t249 61q189 0 297 -82t108 -238q0 -30 -2 -122 t-2 -181q0 -243 25 -295q35 -67 143 -67v-45q-38 -24 -106 -43t-123 -19q-66 0 -115.5 50t-56.5 100q-36 -71 -114.5 -110.5t-155.5 -39.5q-152 0 -232 80.5t-80 190.5zM299 285q0 -68 42 -110t97 -42q96 0 178 60q-4 92 -4 278q-35 -2 -68 -5.5t-80.5 -16t-81.5 -31.5 t-58.5 -53.5t-24.5 -79.5z" />
<glyph unicode="b" horiz-adv-x="1157" d="M76 1458v37l28 15q28 16 79 31t98 15q95 0 133.5 -48t38.5 -146q-5 -104 -8 -173t-6 -113.5t-6.5 -68.5t-8.5 -38q45 40 111.5 68t128.5 28q80 0 153.5 -33t133 -95.5t95 -165t35.5 -230.5q0 -84 -20.5 -165.5t-63.5 -154.5t-103.5 -128t-146.5 -87.5t-186 -32.5 q-126 0 -223 37.5t-127 102.5q-37 73 -37 184q0 366 5 810l1 118q0 93 -30 157t-74 76zM428 481q0 -69 2 -118.5t8 -97t17 -78.5t28.5 -55t42.5 -35t58 -11q64 0 111.5 39t71.5 101.5t35 125.5t11 127q0 194 -71.5 312t-186.5 118q-70 0 -123 -37q0 -80 -2 -210t-2 -181z " />
<glyph unicode="c" horiz-adv-x="985" d="M76 475q0 160 66 295.5t183.5 215t260.5 79.5q145 0 244.5 -53t99.5 -142q0 -54 -39 -90.5t-90 -36.5q-55 0 -94 45q-2 57 -39 96.5t-105 39.5q-69 0 -123 -56.5t-82 -143t-28 -183.5q0 -98 31.5 -185t96.5 -144.5t150 -57.5q212 0 334 184q12 -38 12 -72 q0 -82 -58.5 -149.5t-157.5 -105.5t-216 -38q-94 0 -173.5 30t-141 90t-96.5 157.5t-35 224.5z" />
<glyph unicode="d" horiz-adv-x="1167" d="M76 465q0 84 20.5 168t63.5 161.5t102.5 137.5t144 95.5t181.5 35.5q41 0 97 -11.5t56 -15.5q0 63 -1 116.5t-3 97.5t-8.5 78.5t-17.5 60t-30 43t-46 26.5v37l28 15q28 16 79 31t98 15q45 0 74 -8t52.5 -31t34.5 -67t11 -113v-26q0 -18 -5 -136t-10.5 -289t-5.5 -319 q0 -85 1 -139.5t4 -109t8 -85.5t14.5 -61.5t21.5 -44.5t31.5 -26t42.5 -16t55 -5v-45q-121 -62 -225 -62q-48 0 -99 29.5t-75 83.5q-133 -113 -276 -113q-82 0 -154.5 28t-133 84.5t-95.5 154t-35 225.5zM344 535q0 -195 71 -304.5t185 -109.5q81 0 133 37l2 235v510 q-110 27 -164 27q-63 0 -110 -39t-71 -101.5t-35 -126.5t-11 -128z" />
<glyph unicode="e" d="M76 465q0 165 56.5 299t163 212.5t243.5 78.5q80 0 144.5 -19.5t106 -49t72 -72.5t46 -81t24 -84.5t10.5 -74t2 -56.5v-47l-18 -8q-51 -20 -138 -20l-454 6q2 -23 2 -76q4 -149 89.5 -234t190.5 -85q90 0 182.5 42t162.5 146q9 -32 9 -64q0 -30 -9 -60 q-17 -60 -59.5 -103.5t-102.5 -76t-130 -49t-141 -16.5q-91 0 -169.5 28.5t-142.5 86t-101.5 154.5t-38.5 223zM336 645q59 1 178 6t184 6q-1 49 -11 95.5t-30 87.5t-54 65.5t-77 24.5q-41 0 -73 -22t-54 -64.5t-36.5 -89t-26.5 -109.5z" />
<glyph unicode="f" horiz-adv-x="698" d="M72 969l10 61q40 4 74.5 32t40.5 85q9 96 37.5 171.5t67 121.5t88.5 76t97.5 41.5t98.5 11.5q108 0 176.5 -48.5t68.5 -115.5q0 -48 -34.5 -78.5t-81.5 -30.5q-41 0 -78 27q1 5 1 11q0 30 -20 56q-24 29 -83 29q-119 0 -119 -168q0 -7 1 -20t1 -21l10 -139q0 -24 -2 -37 h178q30 0 64.5 7.5t44.5 25.5q6 -21 6 -49q0 -123 -176 -123q-16 0 -55.5 3t-57.5 3v-121q0 -625 35 -780h-287q2 39 6 290t4 374q0 199 -18 225q-20 29 -44.5 49t-39.5 26z" />
<glyph unicode="g" horiz-adv-x="1093" d="M61 -276q0 57 41.5 89.5t98.5 32.5q70 0 123 -59q-9 -25 -9 -55q0 -68 64 -109t151 -41q107 0 193 52.5t86 134.5q0 22 -8 38.5t-22 27.5t-34 19t-43.5 12t-50 7t-54.5 3.5t-56 2.5q-55 2 -97 6t-91.5 13t-85 24t-66 37t-46.5 56t-16 77q0 67 41.5 119.5t114.5 85.5 q-81 48 -137 135t-56 199q0 115 55.5 214t158 159.5t229.5 60.5q136 0 225 -72l41 41h160q22 0 34 1t34.5 10.5t35.5 29.5q17 -44 17 -69q0 -53 -36.5 -80t-94.5 -27q-45 0 -91 21q-18 8 -26 4q123 -119 123 -267q0 -99 -37 -180t-99 -132t-141 -79t-166 -28q-82 0 -168 24 q-32 -43 -32 -74q0 -30 24.5 -47t66 -23t95.5 -8t113.5 -4t119 -7.5t113.5 -22.5t95.5 -44.5t66 -78t24.5 -119.5q0 -106 -78.5 -188t-196 -123t-247.5 -41q-122 0 -224 26t-168.5 82t-66.5 134zM365 709q0 -170 51 -273.5t141 -103.5q64 0 108 66t44 173q0 174 -51.5 277.5 t-143.5 103.5q-46 0 -81.5 -41t-51.5 -95.5t-16 -106.5z" />
<glyph unicode="h" horiz-adv-x="1230" d="M82 1458v37l28 15q29 16 81 31t100 15q96 0 132 -50t36 -154q0 -51 -8.5 -208t-10.5 -263q34 36 65.5 63.5t76 57.5t95.5 46.5t105 16.5q125 0 205 -78.5t80 -191.5q0 -29 -1 -198.5t-1 -188.5q0 -236 22 -408h-278l-3 22q-3 22 -3 44q0 80 2 264.5t2 265.5 q0 149 -25.5 213.5t-97.5 64.5q-80 0 -136.5 -27t-107.5 -73v-104v-260q0 -112 5 -217.5t18 -192.5h-287q7 335 7.5 779.5t2.5 445.5q0 101 -32.5 161.5t-71.5 71.5z" />
<glyph unicode="i" horiz-adv-x="614" d="M90 946v37q117 72 221 72q148 0 148 -195q0 -30 -5 -101.5t-5 -111.5v-201q0 -286 22 -446h-287l11 698q0 64 -11 113.5t-25 73.5t-31 39.5t-26 18.5t-12 3zM160 1317q0 60 42 101.5t101 41.5q56 0 96.5 -41.5t40.5 -101.5q0 -57 -40.5 -97t-96.5 -40q-59 0 -101 40 t-42 97z" />
<glyph unicode="j" horiz-adv-x="612" d="M-43 -453q44 -57 102 -57q70 0 138.5 31.5t125 90.5t91.5 153.5t35 209.5v713q1 18 3.5 56t3.5 62q1 14 1 33v27q-1 36 -5 59.5t-15 50.5t-28 42.5t-44.5 26t-63.5 10.5q-50 0 -103.5 -18t-81.5 -36l-28 -18v-37q44 -15 74.5 -74t30.5 -151v-750q0 -93 -31 -190t-87 -165 t-118 -69zM158 1317q0 60 42 101.5t101 41.5q56 0 96.5 -41.5t40.5 -101.5q0 -57 -40.5 -97t-96.5 -40q-59 0 -101 40t-42 97z" />
<glyph unicode="k" horiz-adv-x="1187" d="M88 1458v37l28 15q29 16 81 31t100 15q96 0 132 -50t36 -154q0 -37 -9.5 -326.5t-9.5 -454.5l334 275q59 46 62 86q0 19 -25 35v37q22 15 77 33t101 18q38 0 63 -17t25 -47q0 -36 -21.5 -71t-54 -62t-71.5 -55t-74 -49l-205 -138q15 -18 63.5 -88t102 -141t117.5 -146 t132.5 -126t125.5 -58v-37q-82 -47 -219 -47q-98 0 -170 49.5t-137 149.5q-37 57 -84 132t-70 111.5t-43.5 63t-28.5 25.5q0 -136 1 -199.5t6 -146t16 -158.5h-287l11 1225v6q0 96 -32 155q-33 61 -73 72z" />
<glyph unicode="l" horiz-adv-x="612" d="M88 1458v37l28 15q29 16 81 31t100 15q96 0 132 -50t36 -154q0 -63 -6 -144q-13 -219 -13 -538v-261q0 -112 5 -217t18 -192h-287q6 314 6 582l5 643q0 101 -32.5 161.5t-72.5 71.5z" />
<glyph unicode="m" horiz-adv-x="1843" d="M82 946v37q117 72 221 72q59 0 94 -32.5t45 -82.5l-2 -57q177 182 342 182q102 0 173.5 -53t97.5 -138q53 70 149 130.5t193 60.5q125 0 203 -78t81 -192q-3 -157 -3 -310v-115q2 -208 24 -370h-279l-3 22q-3 22 -3 44q0 80 2 264.5t2 265.5v20q-1 130 -25 192 q-26 66 -98 66q-132 0 -229 -88q-3 -170 -3 -336v-82q1 -206 23 -368h-278l-3 22q-3 22 -3 44q0 80 2 264.5t2 265.5v20q0 132 -25 192q-27 66 -98 66q-80 0 -136.5 -27t-107.5 -73q0 -487 6 -612q8 -109 17 -162h-287l2 63l8 635v9q0 73 -16 125q-16 56 -35.5 77.5 t-36.5 28.5z" />
<glyph unicode="n" horiz-adv-x="1230" d="M82 946v37q117 72 221 72q60 0 96 -34.5t43 -82.5l-2 -57q36 36 66.5 62.5t75.5 57.5t96 47.5t104 16.5q125 0 203.5 -78t81.5 -192q-3 -173 -3 -341v-84q1 -208 23 -370h-278l-3 22q-3 22 -3 44q0 80 2 264.5t2 265.5v20q0 132 -25 192q-27 66 -98 66q-80 0 -136.5 -27 t-107.5 -73q0 -487 6 -612q8 -109 17 -162h-287l2 63l8 635v9q0 73 -16 125q-16 56 -35.5 77.5t-36.5 28.5z" />
<glyph unicode="o" horiz-adv-x="1159" d="M76 502q0 -11 1 -27t5.5 -52.5t13 -72.5t25.5 -82t39.5 -85.5t59 -79t81 -67.5t107.5 -45.5t137 -17.5q154 0 278.5 79.5t192 208.5t67.5 278q0 127 -38.5 229t-104.5 166t-149.5 97.5t-176.5 33.5q-154 0 -277.5 -74.5t-192 -203t-68.5 -285.5zM354 586q0 58 11 118 t32.5 114.5t59 89t84.5 34.5q108 0 185 -136t77 -331q0 -165 -59 -274t-144 -109q-69 0 -126 67t-88.5 180.5t-31.5 246.5z" />
<glyph unicode="p" horiz-adv-x="1183" d="M88 946v37l28 18q29 18 83 36t106 18q72 0 108 -32q33 -30 33 -67v-6q46 46 112 80.5t130 34.5q81 0 155 -33t134 -95.5t95.5 -165t35.5 -230.5q0 -84 -20.5 -165.5t-63.5 -154.5t-103.5 -128t-146.5 -87.5t-186 -32.5q-55 0 -142 19q0 -125 4 -259.5t19 -224.5h-287 q0 4 2 95.5t2 156.5v215q0 255 4 503l3 249q-2 86 -31 145t-74 74zM446 231l3 -114q79 -21 161 -21q53 0 94.5 26.5t66 66.5t40.5 94t21.5 103t5.5 99q0 189 -71.5 301.5t-184.5 112.5q-71 0 -129 -29q-7 -294 -7 -639z" />
<glyph unicode="q" horiz-adv-x="1175" d="M76 465q0 84 20.5 166t63.5 157t103 132t145.5 90.5t185.5 33.5q40 0 211 -18q134 -16 215 -16l2 -90v-74q0 -81 -6 -201q-10 -293 -10 -418q0 -435 10 -647q0 -29 6 -65h-277v227q0 59 1.5 141.5t1.5 87.5v84q-113 -82 -254 -82q-82 0 -154.5 28t-133 84.5t-95.5 154 t-35 225.5zM344 500q0 -178 71 -275.5t185 -97.5q74 0 148 51l-5 584q0 54 -10 131q-82 20 -162 20q-55 0 -97 -29t-66 -72.5t-39 -102t-20 -108.5t-5 -101z" />
<glyph unicode="r" horiz-adv-x="868" d="M86 946v37q112 72 219 72q129 0 129 -123q0 -3 -5 -39.5t-7 -56.5q30 72 113 150.5t170 78.5q86 0 127.5 -42.5t41.5 -98.5q0 -55 -37 -94t-96 -39q-3 0 -10.5 1t-11.5 1q-16 81 -94 81q-49 0 -85 -22t-56.5 -57t-32.5 -89.5t-15.5 -106t-3.5 -120.5q0 -166 5 -268 t22 -211h-279q0 41 5 289.5t5 408.5q0 72 -11.5 123t-31 76t-33 35t-28.5 14z" />
<glyph unicode="s" horiz-adv-x="874" d="M78 737q0 150 106.5 239t282.5 89q163 0 291 -78q8 -29 10 -65v-6q0 -34 -14 -78q-15 -48 -49 -84l-37 8q-16 49 -45.5 86t-64.5 56t-68.5 27.5t-65.5 8.5q-62 0 -112 -28t-50 -91q0 -33 30.5 -63.5t80 -55.5t108.5 -51.5t118.5 -58.5t109 -69.5t80 -91.5t30.5 -118 q0 -160 -113 -250t-292 -90q-138 0 -235 73.5t-97 168.5q0 46 22 80q7 -71 105 -128.5t199 -57.5q80 0 137 29.5t57 92.5q0 36 -39 70t-97 60t-126 62t-126 75t-97 101.5t-39 137.5z" />
<glyph unicode="t" horiz-adv-x="794" d="M70 969l10 61q9 0 24 4t46.5 18.5t70 53.5t72.5 98h164l-23 -170h191q30 0 64.5 7.5t43.5 25.5q6 -21 6 -49q0 -123 -176 -123q-16 0 -66.5 3t-68.5 3v-461q-1 -29 0 -61t2.5 -63.5t10 -60t21.5 -50t37.5 -34.5t57.5 -13q62 0 129 20.5t84 54.5q11 -26 11 -52 q0 -37 -22 -73q-37 -62 -115.5 -98.5t-168.5 -36.5q-94 0 -155.5 22t-93.5 68t-44 103.5t-12 142.5q0 76 10 226t10 219q0 118 -18 141q-41 52 -102 74z" />
<glyph unicode="u" horiz-adv-x="1218" d="M66 946v37q41 27 100 49.5t108 22.5t81.5 -15t48 -44.5t21 -61.5t5.5 -78q0 -62 -4 -196.5t-4 -206.5q0 -58 1.5 -95.5t9 -82t21 -69.5t38.5 -42t61 -17q79 0 141 27.5t99 69.5q0 23 2 173.5t2 268.5q0 227 -105 260v37q30 23 92 47.5t111 24.5q51 0 84.5 -15t49.5 -44 t22 -59t6 -71q0 -6 -1 -50.5t-2 -170t-1 -330.5q0 -165 45 -200q39 -35 116 -35v-45q-21 -16 -92 -39t-127 -23q-44 0 -79 18t-55.5 46.5t-32.5 58.5t-15 60q-59 -78 -156 -130.5t-211 -52.5q-118 0 -196 75t-80 175q0 25 1 133t1 262q0 164 -31 250q-9 28 -27.5 47.5 t-33.5 24.5z" />
<glyph unicode="v" horiz-adv-x="999" d="M0 989q36 26 89 46t99 20q86 0 126.5 -41t64.5 -131q20 -116 160 -508q1 -3 21 -50t22 -53l8 42q8 43 18 71l140 369q28 79 28 129q0 49 -35 69v37q29 27 76.5 46.5t89.5 19.5q76 0 76 -76q0 -53 -51 -180l-291 -684l-49 -170l-72 20q-75 14 -116 61.5t-50 88.5l-178 569 q-24 77 -54.5 134.5t-56.5 83.5t-41 37t-22 13z" />
<glyph unicode="w" horiz-adv-x="1681" d="M0 989q36 26 89 46t99 20q86 0 126.5 -41t64.5 -131q20 -116 160 -508q1 -3 21 -50t22 -53l8 42q8 43 18 71l144 369q14 33 26 96q-8 15 -17 28.5t-16 23t-15.5 18t-14 13t-12 9t-9.5 6t-6 2.5l-4 2l-2 37q36 26 89 46t99 20q86 0 126.5 -41t64.5 -131q20 -116 160 -508 q30 -76 43 -103q0 7 8 45.5t18 67.5l140 369q28 79 28 129q0 49 -35 69v37q29 27 76.5 46.5t89.5 19.5q76 0 76 -76q0 -53 -51 -180l-291 -684l-49 -170l-72 20q-75 14 -116 61t-50 89l-170 544l-225 -544l-49 -170l-72 20q-75 14 -116 61.5t-50 88.5l-178 569 q-24 77 -54.5 134.5t-56.5 83.5t-41 37t-22 13z" />
<glyph unicode="x" horiz-adv-x="985" d="M0 0l393 479l-135 203q-17 27 -50.5 84t-53 86.5t-52.5 60t-69 39.5v37q28 20 47 32t52.5 23t66.5 11q49 0 82.5 -9.5t55.5 -31.5t34 -42t31 -57t34 -61l94 -149l23 -52l11 20q11 20 22 32l94 110q43 55 43 94q0 27 -23 43v37q29 27 76.5 46.5t89.5 19.5q37 0 54.5 -21.5 t17.5 -54.5q0 -35 -8 -62.5t-28.5 -60t-55.5 -71t-89 -95t-130 -131.5q43 -67 92.5 -143.5t94.5 -145t96 -140.5t96 -130h-322l-39 80l2 -2q-38 57 -92.5 143t-89.5 148q-5 -7 -16.5 -30t-16.5 -30q-42 -55 -78 -102t-72 -102.5t-59 -104.5h-223z" />
<glyph unicode="y" horiz-adv-x="1007" d="M6 -305q20 -25 64.5 -41t89.5 -16q76 0 129.5 28.5t75.5 81.5l96 211l24 43l-24 10q-24 9 -53.5 37.5t-40.5 65.5l-179 569q-19 63 -43.5 113t-45 77.5t-40.5 46t-30 24.5t-15 7l-2 37q36 26 89.5 46t99.5 20q86 0 126 -41t64 -131q20 -116 160 -508q2 -4 24.5 -50.5 t24.5 -52.5l10 42q10 43 21 71l129 369q28 79 28 129q0 49 -34 69l-4 37q28 27 75.5 46.5t89.5 19.5q72 0 72 -76q0 -53 -51 -180l-408 -1004q-22 -54 -37 -87.5t-39 -79t-48.5 -72.5t-57.5 -54t-74 -39t-90 -12q-92 0 -144 70q-38 50 -38 117q0 27 6 57z" />
<glyph unicode="z" horiz-adv-x="989" d="M31 53l19 20q20 20 34 42l465 731q25 38 47 49h-281q-89 0 -148.5 -31t-66.5 -78h-45q-9 13 -13 60q-1 15 -1 30q0 36 7 78q10 60 40 93l289 -13h551l8 -45l-22 -21q-23 -21 -40 -48l-450 -727q-10 -17 -30 -37l-21 -19h311q90 0 149.5 31t65.5 78h45q9 -13 13 -56 q1 -13 2 -27q1 -33 -7 -73q-10 -57 -41 -90h-288h-584z" />
<glyph unicode="{" horiz-adv-x="681" d="M2 578v45q154 0 154 579q0 86 30 155t78 109.5t101.5 62t105.5 21.5q39 0 90.5 -13t75.5 -34q-117 -1 -178.5 -84t-61.5 -235q0 -141 -18 -258.5t-45.5 -188.5t-57 -110.5t-55.5 -42.5l13 -8q13 -8 32.5 -29.5t42.5 -72t42.5 -122t32.5 -194.5t13 -275q-1 -29 0 -58 t1.5 -56.5t5.5 -52.5t12.5 -46.5t22 -39t34 -30t48.5 -19.5t65 -7q13 0 51 4q-31 -37 -95.5 -58.5t-119.5 -21.5q-105 0 -185.5 79t-80.5 212q0 232 -12.5 392t-36 241t-48 115t-57.5 41z" />
<glyph unicode="|" horiz-adv-x="212" d="M0 -520v2068h213v-2068h-213z" />
<glyph unicode="}" horiz-adv-x="681" d="M45 -422q31 -37 95.5 -58.5t119.5 -21.5q105 0 185.5 79t80.5 212q0 232 12.5 392t36 241t48 115t57.5 41v45q-154 0 -154 579q0 86 -30 155t-78 109.5t-101.5 62t-105.5 21.5q-39 0 -90.5 -13t-75.5 -34q117 -1 178.5 -84t61.5 -235q0 -141 18 -258.5t45.5 -188.5 t57 -110.5t55.5 -42.5l-13 -8q-13 -8 -32.5 -29.5t-42.5 -72t-42.5 -122t-32.5 -194.5t-13 -275q1 -29 0 -58t-1.5 -56.5t-5.5 -52.5t-12.5 -46.5t-22 -39t-34 -30t-48.5 -19.5t-65 -7q-15 0 -51 4z" />
<glyph unicode="~" horiz-adv-x="1079" d="M170 520q70 51 121 51q34 0 146.5 -34.5t193.5 -34.5q87 0 167.5 56.5t98.5 139.5q-83 -55 -141 -55q-43 0 -160.5 35t-173.5 35q-85 0 -161 -55.5t-91 -137.5z" />
<glyph unicode="&#xa1;" horiz-adv-x="540" d="M80 -61q0 56 20 172q23 132 50 355.5t42 381.5l15 158h100l94 -967q4 -51 16.5 -88t22.5 -49l11 -11v-38q-89 -60 -197 -60q-75 0 -124.5 36t-49.5 110zM127 1249q0 57 40.5 97t96.5 40q59 0 101.5 -40t42.5 -97q0 -60 -42.5 -101.5t-101.5 -41.5q-56 0 -96.5 41.5 t-40.5 101.5z" />
<glyph unicode="&#xa2;" horiz-adv-x="985" d="M76 475q0 235 134.5 403.5t342.5 184.5q-2 45 -10 182q45 10 78 10q31 0 43 -25t9 -62.5t-3 -82.5q0 -4 -1 -12.5t-1 -13.5q118 -16 181.5 -74t63.5 -127q0 -9 -4 -39q-128 88 -243 101q-6 -604 -4 -764q177 20 286 182q13 -41 13 -72q0 -99 -83.5 -174.5t-215.5 -103.5 q3 -177 10 -211h-121v196h-23q-90 0 -169.5 30.5t-143.5 89.5t-101.5 157.5t-37.5 224.5zM336 541q0 -133 57.5 -241t157.5 -138l2 749q-99 -24 -158 -117.5t-59 -252.5z" />
<glyph unicode="&#xa3;" horiz-adv-x="1177" d="M31 526l14 164q5 2 12 3t13 2t20 1h22h32h38v66q0 119 5.5 189t25.5 151q10 40 25 79.5t41 85t58.5 85.5t79 78t101.5 65t128.5 43t156.5 16q71 0 143 -21t126 -67t54 -106q0 -73 -50.5 -110.5t-110.5 -37.5q-61 0 -117 50q4 8 4 36q0 48 -40 83.5t-105 35.5 q-93 0 -162.5 -94t-81.5 -223q-6 -61 -8.5 -119t-5 -139t-5.5 -150q50 -2 113 -2h39q73 0 110 2.5t89.5 18.5t97.5 49q-8 -47 -23.5 -82.5t-36.5 -58t-47.5 -38t-55.5 -21.5t-61 -10t-64.5 -3t-65.5 0h-101q-6 -156 -47.5 -363t-85.5 -284q210 -39 365 -39q162 0 308 46 t228 134q21 -95 21 -121q0 -229 -451 -229q-145 0 -536 63q-16 2 -92.5 14t-110.5 17q59 124 96 338.5t47 425.5h-49q-54 0 -100 -23z" />
<glyph unicode="&#xa4;" horiz-adv-x="1183" d="M14 438l25 162q48 -10 102 -10q-2 0 -2 65q0 30 4 78h-51q-39 0 -78 -8l25 162q63 -10 131 -10q59 236 240.5 376t437.5 140q166 0 247 -43.5t81 -112.5q0 -58 -50 -117q-12 57 -97.5 93t-205.5 36q-152 0 -261.5 -106t-149.5 -269h379h75q112 0 199 33q-8 -46 -26 -78.5 t-42 -50.5t-54 -29.5t-64 -14t-71 -3.5t-75 0h-338q0 -75 8 -143h265h90q120 0 194 33q-9 -46 -27 -79.5t-42.5 -51.5t-55.5 -29t-65.5 -13.5t-73 -3.5t-78.5 0h-178q97 -333 418 -333q22 0 47.5 4t69.5 17.5t96 47t100 84.5v-18q0 -131 -101.5 -203t-275.5 -72 q-253 0 -412.5 126.5t-209.5 348.5h-68q-48 0 -82 -8z" />
<glyph unicode="&#xa5;" horiz-adv-x="1103" d="M0 1317l18 43q68 33 177 33q131 0 170 -50q37 -103 138.5 -303.5t135.5 -261.5l9 28q10 28 24 52l153 277q27 48 27 92t-29 90l19 43q62 24 131 24q57 0 117 -36q0 -40 -36 -135t-75 -146l-260 -340q250 0 272 16q-16 -54 -40.5 -89.5t-53.5 -51t-63.5 -24t-70 -7.5 t-73.5 -2q-12 -90 -12 -163h138q64 0 114 3.5t61 12.5q-14 -65 -48 -104t-77 -50.5t-93 -16.5t-95 -3q0 -154 18 -248h-264q1 52 4 136l4 112q-47 0 -94 0.5t-76 1t-32 0.5q-29 0 -37 -2v166q0 -8 241 -8v26q0 94 -2 137q-47 0 -94 0.5t-76 1t-32 0.5q-29 0 -37 -2v166 q0 -4 192 -8l-168 297q-45 78 -74.5 129t-53 84t-45.5 51t-52 29z" />
<glyph unicode="&#xa7;" horiz-adv-x="860" d="M102 -311l4 37q58 -52 135.5 -83t145.5 -30h19q3 32 3.5 65.5t-2 69.5t-8.5 75t-15 83.5t-21 95t-27 108.5t-33 124.5t-39.5 143.5t-46.5 165q-102 364 -102 571q0 171 121 297.5t276 126.5q79 0 143 -21t100 -52.5t54.5 -63.5t17.5 -58l-4 -36q-57 51 -134.5 82 t-145.5 30h-21q-3 -32 -2 -69t1 -62.5t10.5 -82t13 -77t23 -102t25 -101.5t35.5 -131.5t38 -136.5t47 -168q102 -368 102 -571q0 -84 -33.5 -163t-88.5 -135t-127.5 -90t-147.5 -34q-79 0 -143 21t-99.5 52t-54.5 62.5t-19 57.5zM281 1081q0 -76 23.5 -184t94.5 -387 q28 -113 42 -171t34.5 -154t27 -157t11 -137t-4 -139t-26.5 -121q169 62 166 320q0 53 -14.5 134t-33.5 158.5t-71 278.5q-41 164 -61 255t-40 217t-15.5 224t30.5 183q-166 -63 -163 -320z" />
<glyph unicode="&#xa8;" horiz-adv-x="786" d="M94 1325q0 52 34 89.5t81 37.5q46 0 80.5 -37.5t34.5 -89.5t-34.5 -88.5t-80.5 -36.5q-47 0 -81 36.5t-34 88.5zM471 1325q0 53 33.5 90t81.5 37q46 0 80 -37.5t34 -89.5t-34 -88.5t-80 -36.5q-48 0 -81.5 36.5t-33.5 88.5z" />
<glyph unicode="&#xa9;" horiz-adv-x="1617" d="M100 633q0 216 90.5 384t264 264.5t405.5 96.5q299 0 482.5 -181.5t183.5 -469.5q0 -217 -89.5 -388t-261 -269.5t-399.5 -98.5q-306 0 -491 185.5t-185 476.5zM262 672q0 -162 75.5 -293t203 -203t280.5 -72q106 0 204 42.5t172.5 116.5t118.5 183t44 234t-41.5 232 t-114 180.5t-172.5 115t-215 41.5q-109 0 -209.5 -42.5t-177 -116.5t-122.5 -183t-46 -235zM446 643q0 115 48.5 212t141.5 156.5t210 59.5q123 0 192.5 -48.5t69.5 -129.5q0 -13 -4 -37q-41 32 -96 51t-109 19q-92 0 -152.5 -58.5t-60.5 -183.5q0 -99 47 -166t133 -67 q149 0 254 145q19 -34 19 -80q0 -94 -97.5 -158.5t-226.5 -64.5q-74 0 -138.5 20.5t-117 61t-83 109.5t-30.5 159z" />
<glyph unicode="&#xaa;" horiz-adv-x="858" />
<glyph unicode="&#xab;" horiz-adv-x="1302" d="M61 506l16 14q16 14 27 27l269 319q56 66 110.5 99.5t94.5 33.5q51 0 89.5 -13.5t55.5 -29.5q-18 -6 -45.5 -27t-45.5 -39l-18 -18l-221 -303q-15 -22 -42.5 -42.5t-31.5 -20.5q5 0 32 -21t42 -43l221 -303l42 -37q41 -38 67 -47q-18 -14 -56.5 -26.5t-88.5 -12.5 q-40 0 -96 33t-109 96l-269 320zM573 506l16 14q16 14 27 27l269 319q56 66 110.5 99.5t94.5 33.5q51 0 89.5 -13.5t55.5 -29.5q-18 -6 -45.5 -27t-45.5 -39l-18 -18l-221 -303q-15 -22 -42.5 -42.5t-31.5 -20.5q5 0 32 -21t42 -43l221 -303l42 -37q41 -38 67 -47 q-18 -14 -56.5 -26.5t-88.5 -12.5q-40 0 -96 33t-109 96l-269 320z" />
<glyph unicode="&#xac;" horiz-adv-x="1095" />
<glyph unicode="&#xad;" horiz-adv-x="632" d="M39 422v162q0 -9 262 -9q93 0 136.5 0.5t89 5.5t59.5 15q-3 -32 -10.5 -57.5t-22 -43.5t-29 -31t-39 -21t-43 -13t-50.5 -7t-52 -2.5t-57 -0.5q-27 0 -109.5 2t-95.5 2q-31 0 -39 -2z" />
<glyph unicode="&#xae;" horiz-adv-x="1617" d="M100 633q0 216 90.5 384t264 264.5t405.5 96.5q299 0 482.5 -181.5t183.5 -469.5q0 -217 -89.5 -388t-261 -269.5t-399.5 -98.5q-306 0 -491 185.5t-185 476.5zM262 672q0 -162 75.5 -293t203 -203t280.5 -72q106 0 204 42.5t172.5 116.5t118.5 183t44 234t-41.5 232 t-114 180.5t-172.5 115t-215 41.5q-109 0 -209.5 -42.5t-177 -116.5t-122.5 -183t-46 -235zM524 948v49q100 56 183 56q47 0 73 -32t37 -71q28 41 86 76t109 35q49 0 88 -30.5t39 -72.5q0 -44 -32.5 -78.5t-96.5 -41.5l-3 15q-3 15 -21 30.5t-48 15.5q-37 0 -62 -24 t-36.5 -68.5t-16 -90t-4.5 -106.5q0 -97 19.5 -178.5t48.5 -126.5h-295q1 24 7 108t9.5 151t3.5 124q0 81 -8.5 135.5t-24.5 79t-27.5 33t-27.5 12.5z" />
<glyph unicode="&#xaf;" horiz-adv-x="686" d="M80 1204v162q0 -8 262 -8q93 0 136.5 0.5t89 5.5t59.5 14q-3 -32 -10.5 -57.5t-22 -43.5t-29 -31t-39 -21t-43 -13t-50.5 -7t-52 -2.5t-57 -0.5q-27 0 -109.5 2t-95.5 2q-31 0 -39 -2z" />
<glyph unicode="&#xb0;" horiz-adv-x="817" d="M35 1176q0 148 107 252t257 104t255.5 -104t105.5 -252q0 -150 -105.5 -253.5t-255.5 -103.5q-151 0 -257.5 103.5t-106.5 253.5zM193 1176q0 -85 60 -147t144 -62q87 0 146 61.5t59 147.5q0 87 -59 147.5t-146 60.5q-84 0 -144 -60.5t-60 -147.5z" />
<glyph unicode="&#xb1;" horiz-adv-x="915" />
<glyph unicode="&#xb2;" horiz-adv-x="950" d="M72 0v96l32 33q34 36 74.5 74.5t85.5 89t88 101.5t82 113t68.5 123.5t47 132.5t17.5 140q0 39 -7 72.5t-23 63t-45 46.5t-70 17q-63 0 -103.5 -37t-29.5 -96q-36 -41 -90 -41q-47 0 -80 27.5t-33 76.5q0 88 106.5 140.5t253.5 52.5q107 0 188 -26t126 -70.5t66.5 -96 t21.5 -108.5q0 -83 -40 -177.5t-100 -174.5t-130.5 -156t-130.5 -129t-100 -85l-40 -32h377q89 0 130.5 8t64.5 37q10 -37 10 -74q0 -136 -182 -141h-635z" />
<glyph unicode="&#xb3;" horiz-adv-x="958" d="M31 -57q61 -9 96 -9q72 0 145 21t139.5 62t111.5 111t52 159q-1 69 -19.5 121t-43.5 82t-64.5 51t-69.5 29.5t-71 15.5l29 61q92 42 155.5 119t63.5 160q0 79 -40 127.5t-107 48.5q-43 0 -82 -30.5t-39 -80.5q0 -14 2 -22q-38 -41 -92 -41q-45 0 -78 29t-33 79 q0 76 101 132.5t241 56.5q103 0 182 -24.5t123 -64.5t66 -85.5t22 -94.5q0 -173 -243 -301q60 -11 106.5 -30t90 -54.5t67.5 -97.5t24 -147q0 -102 -42 -187t-109.5 -141t-156.5 -95t-181 -56t-184 -17q-42 0 -74 11.5t-48 28t-26 33.5t-12 29z" />
<glyph unicode="&#xb4;" horiz-adv-x="692" d="M98 1202q37 12 66 31t51.5 47t34.5 47t31 53q22 42 38 64t49.5 40.5t80.5 18.5h167l-90 -155q-117 -191 -311 -191q-35 0 -76 18.5t-41 26.5z" />
<glyph unicode="&#xb6;" horiz-adv-x="1273" d="M117 762q0 160 71.5 296t194 215t266.5 79h2h174q77 0 137.5 0.5t105 2t76 4.5t51.5 7.5t30 11.5q-11 -68 -54 -119.5t-98 -58.5v-37q-7 -286 -10 -778q0 -168 4 -524.5t6 -356.5h-131q8 1038 8 1147q0 321 -10 543h-92q1 3 1 -2q1 -6 -1 -50q-10 -307 -10 -757 q0 -168 4 -524.5t6 -356.5h-131q4 452 4 594q0 60 4 86q-59 -22 -129 -22q-131 0 -242.5 86.5t-174 224.5t-62.5 289z" />
<glyph unicode="&#xb7;" horiz-adv-x="528" d="M117 496q0 59 42 101t101 42q56 0 96.5 -42t40.5 -101q0 -57 -40.5 -97.5t-96.5 -40.5q-59 0 -101 40.5t-42 97.5z" />
<glyph unicode="&#xb8;" horiz-adv-x="823" d="M178 -365q0 31 17 60q27 -28 61 -42t53 -16t49 -2q36 0 68.5 16t32.5 44q0 17 -31 33t-68.5 29t-68.5 43.5t-31 72.5q0 27 29.5 61t81.5 62l65 2q-18 -35 -18 -59q0 -12 14.5 -21t36.5 -14t48 -15.5t48 -25.5t36.5 -44.5t14.5 -70.5q0 -94 -71 -167t-180 -73 q-92 0 -139.5 37.5t-47.5 89.5z" />
<glyph unicode="&#xb9;" horiz-adv-x="526" />
<glyph unicode="&#xba;" horiz-adv-x="843" />
<glyph unicode="&#xbb;" horiz-adv-x="1316" d="M63 55q53 -39 146 -39q39 0 95.5 33t109.5 96l268 320l43 41l-16 14q-16 14 -27 27l-268 319q-55 65 -110 99t-95 34q-51 0 -89.5 -13.5t-56.5 -29.5q18 -6 45.5 -27t45.5 -39l18 -18l221 -303q16 -22 43 -42.5t31 -20.5q-4 0 -31 -21t-43 -43l-221 -303l-42 -37 q-41 -38 -67 -47zM575 55q53 -39 146 -39q39 0 95.5 33t109.5 96l268 320l43 41l-16 14q-16 14 -27 27l-268 319q-55 65 -110 99t-95 34q-51 0 -89.5 -13.5t-56.5 -29.5q18 -6 45.5 -27t45.5 -39l18 -18l221 -303q16 -22 43 -42.5t31 -20.5q-4 0 -31 -21t-43 -43l-221 -303 l-42 -37q-41 -38 -67 -47z" />
<glyph unicode="&#xbc;" horiz-adv-x="1267" />
<glyph unicode="&#xbd;" horiz-adv-x="1267" />
<glyph unicode="&#xbe;" horiz-adv-x="3085" d="M2065 225q32 96 103.5 245t156.5 292q99 166 198.5 297t158.5 170h163l-4 -96l-3 -68q-3 -68 -3 -90v-613q60 0 90 1.5t66 12t53 32.5q10 -38 10 -76q0 -56 -44 -97.5t-134 -41.5q-6 0 -18.5 1t-20.5 1q0 -70 -0.5 -131t4.5 -124t17 -108h-269l7 361h-500zM2293 362h296 l13 469q1 35 10 95l8 59q-90 -120 -184 -303q-84 -158 -143 -320zM952 0q534 761 717.5 1032t187.5 320q43 45 109 45q32 0 53.5 -14.5t21.5 -41.5q0 -40 -29 -88t-88.5 -119.5t-82.5 -105.5l-709 -1028h-180zM31 -57q61 -9 96 -9q72 0 145 21t139.5 62t111.5 111t52 159 q-1 69 -19.5 121t-43.5 82t-64.5 51t-69.5 29.5t-71 15.5l29 61q92 42 155.5 119t63.5 160q0 79 -40 127.5t-107 48.5q-43 0 -82 -30.5t-39 -80.5q0 -14 2 -22q-38 -41 -92 -41q-45 0 -78 29t-33 79q0 76 101 132.5t241 56.5q103 0 182 -24.5t123 -64.5t66 -85.5t22 -94.5 q0 -173 -243 -301q60 -11 106.5 -30t90 -54.5t67.5 -97.5t24 -147q0 -102 -42 -187t-109.5 -141t-156.5 -95t-181 -56t-184 -17q-42 0 -74 11.5t-48 28t-26 33.5t-12 29z" />
<glyph unicode="&#xbf;" horiz-adv-x="849" d="M47 147q0 73 26 146.5t68 134t92.5 117.5t100.5 105.5t92 90t68 78.5t26 64t-10 52t-18 36l53 35q150 -68 153 -201q1 -59 -21 -115.5t-57.5 -102.5t-78.5 -91.5t-86 -90.5t-79 -90.5t-58.5 -101t-22.5 -113.5q0 -68 42 -124t128 -56q51 0 99 36.5t48 100.5q0 24 -8 58 q42 53 103 53q60 0 100.5 -35.5t40.5 -89.5q0 -114 -110.5 -182t-272.5 -68q-101 0 -182 29t-131.5 78.5t-77.5 112.5t-27 134zM397 1249q0 57 41 97t97 40q58 0 100.5 -40t42.5 -97q0 -59 -42.5 -101t-100.5 -42q-56 0 -97 42t-41 101z" />
<glyph unicode="&#xc0;" horiz-adv-x="1263" d="M-10 0l461 1182q26 101 113.5 155.5t219.5 63.5q20 -104 47 -180l365 -1045q40 -115 78 -176h-328l-4 33q-4 33 -16 67l-121 344h-469l-146 -411l-6 -33h-194zM287 1751l94 -115q69 -85 137.5 -124t183.5 -39q85 0 123 49q-46 14 -83.5 40t-55 45.5t-43.5 53.5 q-20 25 -30 36t-30.5 26.5t-46.5 21.5t-61 6h-188zM383 580h373l-185 526z" />
<glyph unicode="&#xc1;" horiz-adv-x="1263" d="M-10 0l461 1182q26 101 113.5 155.5t219.5 63.5q20 -104 47 -180l365 -1045q40 -115 78 -176h-328l-4 33q-4 33 -16 67l-121 344h-469l-146 -411l-6 -33h-194zM383 580h373l-185 526zM516 1522q46 14 83.5 40t55 45.5t43.5 53.5q20 25 30 36t30.5 26.5t46.5 21.5t61 6 h189l-94 -115q-46 -56 -84 -88t-98 -53.5t-140 -21.5q-83 0 -123 49z" />
<glyph unicode="&#xc2;" horiz-adv-x="1263" d="M-10 0l461 1182q26 101 113.5 155.5t219.5 63.5q20 -104 47 -180l365 -1045q40 -115 78 -176h-328l-4 33q-4 33 -16 67l-121 344h-469l-146 -411l-6 -33h-194zM227 1497q39 6 82 33t66.5 49.5t66.5 65.5q36 35 54 51t48 31.5t60 15.5h58q67 0 176 -109q35 -36 60.5 -59 t64.5 -47t75 -31q0 -9 -43.5 -25t-83.5 -16q-98 0 -169 41t-109 107q-44 -71 -106.5 -109.5t-172.5 -38.5q-39 0 -83 16t-44 25zM383 580h373l-185 526z" />
<glyph unicode="&#xc3;" horiz-adv-x="1263" d="M-10 0l461 1182q26 101 113.5 155.5t219.5 63.5q20 -104 47 -180l365 -1045q40 -115 78 -176h-328l-4 33q-4 33 -16 67l-121 344h-469l-146 -411l-6 -33h-194zM215 1513q12 7 24 15t27.5 15.5t30.5 13.5t34 10t38 4q42 0 105.5 -19.5t142.5 -39t159 -19.5q109 0 199.5 60 t114.5 153q-101 -59 -181 -59q-54 0 -191 37.5t-208 37.5q-106 0 -190.5 -58.5t-104.5 -150.5zM383 580h373l-185 526z" />
<glyph unicode="&#xc4;" horiz-adv-x="1263" d="M-10 0l461 1182q26 101 113.5 155.5t219.5 63.5q20 -104 47 -180l365 -1045q40 -115 78 -176h-328l-4 33q-4 33 -16 67l-121 344h-469l-146 -411l-6 -33h-194zM313 1612q0 51 34.5 89t80.5 38t80.5 -38t34.5 -89q0 -52 -34.5 -88.5t-80.5 -36.5t-80.5 36.5t-34.5 88.5z M383 580h373l-185 526zM791 1612q0 52 33.5 89.5t80.5 37.5t81 -37.5t34 -89.5t-34 -88.5t-81 -36.5t-80.5 36.5t-33.5 88.5z" />
<glyph unicode="&#xc5;" horiz-adv-x="1263" d="M-10 0l461 1182q26 101 113.5 155.5t219.5 63.5q20 -104 47 -180l365 -1045q40 -115 78 -176h-328l-4 33q-4 33 -16 67l-121 344h-469l-146 -411l-6 -33h-194zM383 580h373l-185 526zM467 1626q0 -85 54 -132.5t133 -47.5q101 0 167 56t66 141q0 81 -55 129.5t-135 48.5 q-101 0 -165.5 -54t-64.5 -141zM600 1649q0 48 20.5 71t49.5 23q30 0 56 -31.5t26 -89.5q0 -49 -21 -73.5t-51 -24.5q-31 0 -55.5 33t-24.5 92z" />
<glyph unicode="&#xc6;" horiz-adv-x="1665" d="M8 0l639 1206q10 27 10 47.5t-5.5 32.5t-18.5 33l16 43l461 -2l377 6q35 -52 41.5 -119.5t-15.5 -128.5h-47q-9 44 -67 75t-123 34l-180 8q0 -27 -5.5 -200.5t-7.5 -268.5h267q30 0 46 1t40 10t41 26q8 -36 8 -70q0 -127 -185 -127q-38 0 -112 2t-105 2v-125 q0 -151 9 -327h362q66 0 98 43q9 -37 9 -68q0 -76 -54.5 -104.5t-175.5 -28.5h-532l4 147v297h-367l-200 -397q-9 -18 -11 -33l-2 -14h-215zM502 580h301v512l4 151q-2 -12 -17.5 -61t-25.5 -72z" />
<glyph unicode="&#xc7;" horiz-adv-x="1261" d="M86 649q0 325 192.5 530t503.5 205q145 0 267 -52t159 -128q0 -39 -44 -110.5t-109 -100.5l-39 31q0 17 -11.5 43t-34.5 56.5t-53 56.5t-72 43.5t-87 17.5q-92 0 -163.5 -41.5t-114.5 -113.5t-65 -160.5t-22 -188.5q0 -123 26 -230t76.5 -190t131.5 -130.5t184 -47.5 q102 0 220.5 59.5t170.5 159.5q36 -104 -20.5 -192.5t-172.5 -138t-259 -54.5q-7 -16 -7 -34q0 -12 14.5 -21t37 -14t48 -15.5t48 -25.5t37 -44.5t14.5 -70.5q0 -94 -71 -167t-181 -73q-92 0 -139 37.5t-47 89.5q0 30 16 60q28 -28 62 -42t53 -16t49 -2q36 0 68 16t32 44 q0 17 -31 33t-68 29t-68 43.5t-31 72.5q0 50 76 102q-184 12 -315 100.5t-196 235t-65 338.5z" />
<glyph unicode="&#xc8;" horiz-adv-x="1052" d="M154 1317l16 43h342l377 6q35 -52 41.5 -119.5t-15.5 -128.5h-47q-9 44 -67 75t-123 34l-180 8q-13 -236 -13 -469h256q31 0 48 1t41.5 10t41.5 26q7 -38 7 -70q0 -127 -187 -127q-38 0 -108 2t-101 2q-1 -133 3 -292l3 -160h359q70 0 102 43q6 -43 6 -68 q0 -76 -55 -104.5t-176 -28.5h-524l2 150v937q-2 83 -8 126t-13 58.5t-28 45.5zM236 1751l94 -115q46 -56 83.5 -88t97.5 -53.5t140 -21.5q85 0 123 49q-46 14 -83.5 40t-55 45.5t-43.5 53.5q-20 25 -30 36t-30.5 26.5t-46.5 21.5t-61 6h-188z" />
<glyph unicode="&#xc9;" horiz-adv-x="1052" d="M154 1317l16 43h342l377 6q35 -52 41.5 -119.5t-15.5 -128.5h-47q-9 44 -67 75t-123 34l-180 8q-13 -236 -13 -469h256q31 0 48 1t41.5 10t41.5 26q7 -38 7 -70q0 -127 -187 -127q-38 0 -108 2t-101 2q-1 -133 3 -292l3 -160h359q70 0 102 43q6 -43 6 -68 q0 -76 -55 -104.5t-176 -28.5h-524l2 150v937q-2 83 -8 126t-13 58.5t-28 45.5zM395 1522q46 14 84 40t55.5 45.5t43.5 53.5q25 32 39.5 47t48 29t79.5 14h189l-94 -115q-46 -56 -84 -88t-98 -53.5t-140 -21.5q-83 0 -123 49z" />
<glyph unicode="&#xca;" horiz-adv-x="1052" d="M154 1317l16 43h342l377 6q35 -52 41.5 -119.5t-15.5 -128.5h-47q-9 44 -67 75t-123 34l-180 8q-13 -236 -13 -469h256q31 0 48 1t41.5 10t41.5 26q7 -38 7 -70q0 -127 -187 -127q-38 0 -108 2t-101 2q-1 -133 3 -292l3 -160h359q70 0 102 43q6 -43 6 -68 q0 -76 -55 -104.5t-176 -28.5h-524l2 150v937q-2 83 -8 126t-13 58.5t-28 45.5zM166 1497q39 6 82.5 34t65 48t67.5 66q34 34 52.5 50.5t49 32t60.5 15.5h57q67 0 176 -109q35 -36 60.5 -59t65 -47t75.5 -31q0 -9 -44 -25t-83 -16q-98 0 -169.5 41t-109.5 107 q-29 -46 -59.5 -75.5t-86.5 -51t-132 -21.5q-39 0 -83 16t-44 25z" />
<glyph unicode="&#xcb;" horiz-adv-x="1052" d="M154 1317l16 43h342l377 6q35 -52 41.5 -119.5t-15.5 -128.5h-47q-9 44 -67 75t-123 34l-180 8q-13 -236 -13 -469h256q31 0 48 1t41.5 10t41.5 26q7 -38 7 -70q0 -127 -187 -127q-38 0 -108 2t-101 2q-1 -133 3 -292l3 -160h359q70 0 102 43q6 -43 6 -68 q0 -76 -55 -104.5t-176 -28.5h-524l2 150v937q-2 83 -8 126t-13 58.5t-28 45.5zM207 1612q0 52 34 89.5t81 37.5q46 0 80 -37.5t34 -89.5t-34 -88.5t-80 -36.5q-47 0 -81 36.5t-34 88.5zM684 1612q0 52 33.5 89.5t81.5 37.5q46 0 80 -37.5t34 -89.5t-34 -88.5t-80 -36.5 q-48 0 -81.5 36.5t-33.5 88.5z" />
<glyph unicode="&#xcc;" horiz-adv-x="698" d="M-10 1751l94 -115q46 -56 84 -88t98 -53.5t140 -21.5q84 0 122 49q-46 14 -83.5 40t-55 45.5t-43.5 53.5q-20 25 -30 36t-30.5 26.5t-46.5 21.5t-61 6h-188zM156 1317l16 43l24 7q25 7 70.5 14.5t87.5 7.5q103 0 158 -27q-20 -356 -20 -811q0 -500 24 -551h-309 q4 136 4 1100q0 55 -5 94t-13 58.5t-17.5 36.5t-19.5 28z" />
<glyph unicode="&#xcd;" horiz-adv-x="698" d="M150 1522q46 14 83.5 40t55 45.5t43.5 53.5q20 25 30 35.5t30.5 26.5t46 22t61.5 6h188l-94 -115q-46 -56 -84 -88t-98 -53.5t-140 -21.5q-84 0 -122 49zM156 1317l16 43l24 7q25 7 70.5 14.5t87.5 7.5q103 0 158 -27q-20 -356 -20 -811q0 -500 24 -551h-309 q4 136 4 1100q0 55 -5 94t-13 58.5t-17.5 36.5t-19.5 28z" />
<glyph unicode="&#xce;" horiz-adv-x="698" d="M-59 1497q39 6 82.5 34t65 48t67.5 66q34 34 52.5 50.5t48.5 32t60 15.5h58q67 0 176 -109q35 -36 60.5 -59t65 -47t75.5 -31q0 -9 -44 -25t-83 -16q-98 0 -169.5 41t-109.5 107q-44 -71 -106 -109.5t-172 -38.5q-40 0 -83.5 16t-43.5 25zM156 1317l16 43l24 7 q25 7 70.5 14.5t87.5 7.5q103 0 158 -27q-20 -356 -20 -811q0 -500 24 -551h-309q4 136 4 1100q0 55 -5 94t-13 58.5t-17.5 36.5t-19.5 28z" />
<glyph unicode="&#xcf;" horiz-adv-x="698" d="M35 1612q0 52 34 89.5t81 37.5q46 0 80 -37.5t34 -89.5t-34 -88.5t-80 -36.5q-47 0 -81 36.5t-34 88.5zM156 1317l16 43l24 7q25 7 70.5 14.5t87.5 7.5q103 0 158 -27q-20 -356 -20 -811q0 -500 24 -551h-309q4 136 4 1100q0 55 -5 94t-13 58.5t-17.5 36.5t-19.5 28z M412 1612q0 52 33.5 89.5t80.5 37.5t81 -37.5t34 -89.5t-34 -88.5t-81 -36.5t-80.5 36.5t-33.5 88.5z" />
<glyph unicode="&#xd1;" horiz-adv-x="1593" d="M162 1317l16 43q23 15 85 25t110 4q63 -76 403 -452.5t385 -424.5q27 -29 55 -94l29 -66l-8 66q-8 65 -8 92v-1q0 -1 0.5 1.5t1 15.5t0.5 35.5t0.5 67.5t1 105t0.5 154v210q0 139 -68 219l19 43q15 10 60 19.5t77 9.5q60 0 92 -25q-24 -544 -24 -973q0 -231 10 -391h-178 l-762 840l-37 57q-38 57 -47 80q6 -35 6 -100q0 -50 -2 -143t-2 -144q0 -429 20 -590h-180v33q2 266 2 731v342q0 80 -12 124t-45 87zM373 1524q12 8 30 18t36 18.5t41 14.5t46 6q42 0 106 -19.5t143 -39t159 -19.5q109 0 199 59.5t114 151.5q-99 -55 -180 -55 q-55 0 -191.5 38t-207.5 38q-107 0 -191.5 -59.5t-103.5 -151.5z" />
<glyph unicode="&#xd2;" horiz-adv-x="1431" d="M82 657q0 -131 32 -243.5t86 -192t126 -136.5t152.5 -84.5t164.5 -27.5q210 0 370.5 97t246 262t90.5 373q0 163 -46.5 294t-127 214t-186 127t-226.5 44q-195 0 -350.5 -91.5t-243.5 -257.5t-88 -378zM373 1751l94 -115q69 -85 137.5 -124t183.5 -39q85 0 123 49 q-46 14 -83.5 40t-55 45.5t-43.5 53.5q-20 25 -30 36t-30.5 26.5t-46.5 21.5t-61 6h-188zM385 723q0 141 39.5 258.5t110.5 186.5t157 69q93 0 174 -80.5t129.5 -219.5t48.5 -302q0 -217 -87 -367.5t-216 -150.5q-97 0 -180 86.5t-129.5 225.5t-46.5 294z" />
<glyph unicode="&#xd3;" horiz-adv-x="1431" d="M82 657q0 -131 32 -243.5t86 -192t126 -136.5t152.5 -84.5t164.5 -27.5q210 0 370.5 97t246 262t90.5 373q0 163 -46.5 294t-127 214t-186 127t-226.5 44q-195 0 -350.5 -91.5t-243.5 -257.5t-88 -378zM385 723q0 141 39.5 258.5t110.5 186.5t157 69q93 0 174 -80.5 t129.5 -219.5t48.5 -302q0 -217 -87 -367.5t-216 -150.5q-97 0 -180 86.5t-129.5 225.5t-46.5 294zM524 1522q46 14 84 40t55.5 45.5t43.5 53.5q25 32 39.5 47t48 29t79.5 14h189l-94 -115q-46 -56 -84 -88t-98 -53.5t-140 -21.5q-83 0 -123 49z" />
<glyph unicode="&#xd4;" horiz-adv-x="1431" d="M82 657q0 -131 32 -243.5t86 -192t126 -136.5t152.5 -84.5t164.5 -27.5q210 0 370.5 97t246 262t90.5 373q0 163 -46.5 294t-127 214t-186 127t-226.5 44q-195 0 -350.5 -91.5t-243.5 -257.5t-88 -378zM324 1497q39 6 82.5 34t65 48t67.5 66q34 34 52.5 50.5t48.5 32 t60 15.5h58q67 0 176 -109q35 -36 60.5 -59t65 -47t75.5 -31q0 -9 -44 -25t-83 -16q-98 0 -169.5 41t-109.5 107q-44 -71 -106 -109.5t-172 -38.5q-40 0 -83.5 16t-43.5 25zM385 723q0 141 39.5 258.5t110.5 186.5t157 69q93 0 174 -80.5t129.5 -219.5t48.5 -302 q0 -217 -87 -367.5t-216 -150.5q-97 0 -180 86.5t-129.5 225.5t-46.5 294z" />
<glyph unicode="&#xd5;" horiz-adv-x="1431" d="M82 657q0 -131 32 -243.5t86 -192t126 -136.5t152.5 -84.5t164.5 -27.5q210 0 370.5 97t246 262t90.5 373q0 163 -46.5 294t-127 214t-186 127t-226.5 44q-195 0 -350.5 -91.5t-243.5 -257.5t-88 -378zM285 1513q12 7 24 15t27.5 15.5t30.5 13.5t33.5 10t37.5 4 q42 0 106 -19.5t143 -39t159 -19.5q109 0 199 60t114 153q-101 -59 -180 -59q-55 0 -191.5 37.5t-207.5 37.5q-107 0 -191.5 -58.5t-103.5 -150.5zM385 723q0 141 39.5 258.5t110.5 186.5t157 69q93 0 174 -80.5t129.5 -219.5t48.5 -302q0 -217 -87 -367.5t-216 -150.5 q-97 0 -180 86.5t-129.5 225.5t-46.5 294z" />
<glyph unicode="&#xd6;" horiz-adv-x="1431" d="M82 657q0 -131 32 -243.5t86 -192t126 -136.5t152.5 -84.5t164.5 -27.5q210 0 370.5 97t246 262t90.5 373q0 163 -46.5 294t-127 214t-186 127t-226.5 44q-195 0 -350.5 -91.5t-243.5 -257.5t-88 -378zM381 1612q0 52 34 89.5t81 37.5q46 0 80 -37.5t34 -89.5t-34 -88.5 t-80 -36.5q-47 0 -81 36.5t-34 88.5zM385 723q0 141 39.5 258.5t110.5 186.5t157 69q93 0 174 -80.5t129.5 -219.5t48.5 -302q0 -217 -87 -367.5t-216 -150.5q-97 0 -180 86.5t-129.5 225.5t-46.5 294zM858 1612q0 52 33.5 89.5t81.5 37.5q46 0 80 -37.5t34 -89.5t-34 -88.5 t-80 -36.5q-48 0 -81.5 36.5t-33.5 88.5z" />
<glyph unicode="&#xd8;" horiz-adv-x="1431" d="M-12 80l178 174q-82 167 -82 403q0 211 87 376t245 257t360 92q228 0 377 -149l29 29q17 20 58.5 65t66.5 74q48 -30 61 -47q14 -14 17 -27t-7.5 -29t-21 -27.5t-33 -33.5t-35.5 -35l-22 -22l-37 -37q112 -177 112 -438q-2 -123 -35.5 -234.5t-95.5 -202.5t-147 -158 t-196 -104t-236 -37q-120 0 -223 46.5t-177 138.5l-157 -158zM385 733q0 -134 25 -241l260 251l288 293q-51 94 -121 146.5t-149 52.5q-125 0 -214 -144t-89 -358zM446 373q46 -119 119.5 -188.5t161.5 -69.5q46 0 92.5 24.5t88 71.5t73.5 109.5t51 144.5t19 170 q0 160 -47 295l-340 -336z" />
<glyph unicode="&#xd9;" horiz-adv-x="1480" d="M147 1317l17 43l24 7q25 7 70.5 14.5t87.5 7.5q103 0 158 -27q-21 -410 -21 -875q0 -92 27 -162.5t73.5 -111.5t102.5 -61.5t119 -20.5q82 0 156.5 32.5t124.5 97t51 145.5l6 692q1 83 -17 130.5t-51 88.5l19 43q15 10 60 19.5t77 9.5q60 0 92 -25q-25 -567 -25 -907 q0 -120 -44 -213.5t-122.5 -152t-182.5 -88.5t-230 -30q-100 0 -191 30t-165 87.5t-118 153.5t-44 217q0 21 1 300t1 339q0 45 -3 78.5t-8.5 54t-13 37t-15.5 26t-16 21.5zM426 1751l94 -115q46 -56 84 -88t98 -53.5t140 -21.5q83 0 123 49q-46 14 -84 40t-55.5 45.5 t-43.5 53.5q-20 25 -30 35.5t-30.5 26.5t-46 22t-61.5 6h-188z" />
<glyph unicode="&#xda;" horiz-adv-x="1480" d="M147 1317l17 43l24 7q25 7 70.5 14.5t87.5 7.5q103 0 158 -27q-21 -410 -21 -875q0 -92 27 -162.5t73.5 -111.5t102.5 -61.5t119 -20.5q82 0 156.5 32.5t124.5 97t51 145.5l6 692q1 83 -17 130.5t-51 88.5l19 43q15 10 60 19.5t77 9.5q60 0 92 -25q-25 -567 -25 -907 q0 -120 -44 -213.5t-122.5 -152t-182.5 -88.5t-230 -30q-100 0 -191 30t-165 87.5t-118 153.5t-44 217q0 21 1 300t1 339q0 45 -3 78.5t-8.5 54t-13 37t-15.5 26t-16 21.5zM621 1522q46 14 83.5 40t55 45.5t43.5 53.5q20 25 30 35.5t30.5 26.5t46 22t61.5 6h188l-94 -115 q-46 -56 -84 -88t-98 -53.5t-140 -21.5q-84 0 -122 49z" />
<glyph unicode="&#xdb;" horiz-adv-x="1480" d="M147 1317l17 43l24 7q25 7 70.5 14.5t87.5 7.5q103 0 158 -27q-21 -410 -21 -875q0 -92 27 -162.5t73.5 -111.5t102.5 -61.5t119 -20.5q82 0 156.5 32.5t124.5 97t51 145.5l6 692q1 83 -17 130.5t-51 88.5l19 43q15 10 60 19.5t77 9.5q60 0 92 -25q-25 -567 -25 -907 q0 -120 -44 -213.5t-122.5 -152t-182.5 -88.5t-230 -30q-100 0 -191 30t-165 87.5t-118 153.5t-44 217q0 21 1 300t1 339q0 45 -3 78.5t-8.5 54t-13 37t-15.5 26t-16 21.5zM381 1497q39 6 82 33t66.5 49.5t66.5 65.5q34 34 52.5 50.5t49 32t60.5 15.5h57q67 0 176 -109 q37 -37 61.5 -59.5t64 -46.5t75.5 -31q0 -9 -44 -25t-83 -16q-97 0 -168.5 41t-110.5 107q-29 -46 -59.5 -75.5t-86.5 -51t-132 -21.5q-39 0 -83 16t-44 25z" />
<glyph unicode="&#xdc;" horiz-adv-x="1480" d="M147 1317l17 43l24 7q25 7 70.5 14.5t87.5 7.5q103 0 158 -27q-21 -410 -21 -875q0 -92 27 -162.5t73.5 -111.5t102.5 -61.5t119 -20.5q82 0 156.5 32.5t124.5 97t51 145.5l6 692q1 83 -17 130.5t-51 88.5l19 43q15 10 60 19.5t77 9.5q60 0 92 -25q-25 -567 -25 -907 q0 -120 -44 -213.5t-122.5 -152t-182.5 -88.5t-230 -30q-100 0 -191 30t-165 87.5t-118 153.5t-44 217q0 21 1 300t1 339q0 45 -3 78.5t-8.5 54t-13 37t-15.5 26t-16 21.5zM430 1612q0 52 34 89.5t81 37.5q46 0 80 -37.5t34 -89.5t-34 -88.5t-80 -36.5q-47 0 -81 36.5 t-34 88.5zM907 1612q0 52 33.5 89.5t81.5 37.5q46 0 80.5 -38t34.5 -89q0 -52 -34.5 -88.5t-80.5 -36.5q-48 0 -81.5 36.5t-33.5 88.5z" />
<glyph unicode="&#xdd;" horiz-adv-x="1103" d="M78 1560q37 12 66 31t51.5 47t34.5 47t31 53q22 42 38 64t49.5 40.5t80.5 18.5h167l-90 -155q-117 -191 -311 -191q-35 0 -76 18.5t-41 26.5zM0 1317l18 43q68 33 177 33q131 0 170 -50q37 -103 138.5 -303.5t135.5 -261.5l9 28q10 28 24 52l153 277q27 48 27 92t-29 90 l19 43q62 24 131 24q57 0 117 -36q0 -36 -37 -129t-74 -152l-254 -401q0 -36 -1 -144t-1 -170q0 -245 16 -352h-295v33q0 84 1 200t1 150q0 199 -2 233q-13 14 -43 64l-196 344q-27 49 -57.5 106t-43 80t-30.5 49t-34 37.5t-40 20.5z" />
<glyph unicode="&#xdf;" horiz-adv-x="1171" d="M45 952l10 62l15 4q16 4 35 13.5t36 30t19 48.5q4 57 20 114t54.5 120.5t93.5 111.5t146 79.5t204 31.5q94 0 171.5 -25.5t128 -82t50.5 -136.5q0 -58 -24.5 -121.5t-60 -117.5t-71 -106t-60 -104t-24.5 -94q0 -25 21 -49t55 -46.5t75 -48t81.5 -57t74.5 -68t55 -88 t21 -110.5q0 -158 -110 -249t-289 -91q-116 0 -182 48t-66 118q0 44 25 82q0 -45 65 -78.5t144 -33.5q73 0 121.5 34.5t48.5 106.5q0 30 -28 62.5t-69.5 60t-90 63.5t-90 72t-69.5 85.5t-28 102.5q0 62 28 121.5t83 140.5q37 57 57 91.5t39.5 95.5t19.5 123q0 159 -157 159 q-88 0 -145.5 -62.5t-57.5 -170.5q0 -24 -3 -265.5t-3 -287.5q0 -429 35 -641h-295v39q0 8 3.5 106t7 223.5t3.5 200.5q0 274 -18 299q-20 29 -46.5 50t-42.5 28z" />
<glyph unicode="&#xe0;" d="M55 244q0 97 60.5 170t157.5 110t214 37q63 0 125 -16q4 86 4 127q0 61 -5.5 105.5t-20.5 84.5t-45.5 61t-75.5 21q-67 0 -103 -47q-26 -34 -26 -79q0 -17 4 -36q-54 -43 -115 -43q-49 0 -83.5 30t-34.5 79q0 95 109 156t249 61q189 0 297 -82t108 -238q0 -30 -2 -122 t-2 -181q0 -243 25 -295q35 -67 143 -67v-45q-38 -24 -106 -43t-123 -19q-66 0 -115.5 50t-56.5 100q-36 -71 -114.5 -110.5t-155.5 -39.5q-152 0 -232 80.5t-80 190.5zM299 285q0 -68 42 -110t97 -42q96 0 178 60q-4 92 -4 278q-35 -2 -68 -5.5t-80.5 -16t-81.5 -31.5 t-58.5 -53.5t-24.5 -79.5zM146 1503l90 -155q118 -191 311 -191q35 0 76 18.5t41 26.5q-36 12 -65 31t-51.5 47t-34.5 47t-31 53q-17 32 -29 49t-31.5 37t-46 28.5t-61.5 8.5h-168z" />
<glyph unicode="&#xe1;" d="M55 244q0 97 60.5 170t157.5 110t214 37q63 0 125 -16q4 86 4 127q0 61 -5.5 105.5t-20.5 84.5t-45.5 61t-75.5 21q-67 0 -103 -47q-26 -34 -26 -79q0 -17 4 -36q-54 -43 -115 -43q-49 0 -83.5 30t-34.5 79q0 95 109 156t249 61q189 0 297 -82t108 -238q0 -30 -2 -122 t-2 -181q0 -243 25 -295q35 -67 143 -67v-45q-38 -24 -106 -43t-123 -19q-66 0 -115.5 50t-56.5 100q-36 -71 -114.5 -110.5t-155.5 -39.5q-152 0 -232 80.5t-80 190.5zM299 285q0 -68 42 -110t97 -42q96 0 178 60q-4 92 -4 278q-35 -2 -68 -5.5t-80.5 -16t-81.5 -31.5 t-58.5 -53.5t-24.5 -79.5zM338 1202q37 12 66 31t51.5 47t34.5 47t31 53q22 42 38 64t49.5 40.5t80.5 18.5h167l-90 -155q-117 -191 -311 -191q-35 0 -76 18.5t-41 26.5z" />
<glyph unicode="&#xe2;" d="M55 244q0 97 60.5 170t157.5 110t214 37q63 0 125 -16q4 86 4 127q0 61 -5.5 105.5t-20.5 84.5t-45.5 61t-75.5 21q-67 0 -103 -47q-26 -34 -26 -79q0 -17 4 -36q-54 -43 -115 -43q-49 0 -83.5 30t-34.5 79q0 95 109 156t249 61q189 0 297 -82t108 -238q0 -30 -2 -122 t-2 -181q0 -243 25 -295q35 -67 143 -67v-45q-38 -24 -106 -43t-123 -19q-66 0 -115.5 50t-56.5 100q-36 -71 -114.5 -110.5t-155.5 -39.5q-152 0 -232 80.5t-80 190.5zM299 285q0 -68 42 -110t97 -42q96 0 178 60q-4 92 -4 278q-35 -2 -68 -5.5t-80.5 -16t-81.5 -31.5 t-58.5 -53.5t-24.5 -79.5zM145 1202q25 5 49.5 21.5t52 48.5t41 49t43.5 59q42 58 77.5 90.5t74.5 32.5h49q35 0 67 -21.5t49 -43t50 -68.5q23 -34 39 -55.5t39 -48t46.5 -42.5t47.5 -22q0 -8 -40.5 -26.5t-76.5 -18.5q-41 0 -71 6t-50 17t-36 26t-29 34.5t-29 41.5 q-12 19 -21 50l-9 32l-9 -32q-9 -31 -22 -50q-15 -21 -26.5 -40t-28 -34.5t-36.5 -26.5t-51 -17.5t-73 -6.5q-35 0 -76 18.5t-41 26.5z" />
<glyph unicode="&#xe3;" d="M55 244q0 97 60.5 170t157.5 110t214 37q63 0 125 -16q4 86 4 127q0 61 -5.5 105.5t-20.5 84.5t-45.5 61t-75.5 21q-67 0 -103 -47q-26 -34 -26 -79q0 -17 4 -36q-54 -43 -115 -43q-49 0 -83.5 30t-34.5 79q0 95 109 156t249 61q189 0 297 -82t108 -238q0 -30 -2 -122 t-2 -181q0 -243 25 -295q35 -67 143 -67v-45q-38 -24 -106 -43t-123 -19q-66 0 -115.5 50t-56.5 100q-36 -71 -114.5 -110.5t-155.5 -39.5q-152 0 -232 80.5t-80 190.5zM299 285q0 -68 42 -110t97 -42q96 0 178 60q-4 92 -4 278q-35 -2 -68 -5.5t-80.5 -16t-81.5 -31.5 t-58.5 -53.5t-24.5 -79.5zM144 1239q68 51 121 51q34 0 146.5 -34.5t193.5 -34.5q87 0 167.5 56.5t98.5 139.5q-82 -55 -142 -55q-43 0 -160 35t-173 35q-85 0 -161 -55.5t-91 -137.5z" />
<glyph unicode="&#xe4;" d="M55 244q0 97 60.5 170t157.5 110t214 37q63 0 125 -16q4 86 4 127q0 61 -5.5 105.5t-20.5 84.5t-45.5 61t-75.5 21q-67 0 -103 -47q-26 -34 -26 -79q0 -17 4 -36q-54 -43 -115 -43q-49 0 -83.5 30t-34.5 79q0 95 109 156t249 61q189 0 297 -82t108 -238q0 -30 -2 -122 t-2 -181q0 -243 25 -295q35 -67 143 -67v-45q-38 -24 -106 -43t-123 -19q-66 0 -115.5 50t-56.5 100q-36 -71 -114.5 -110.5t-155.5 -39.5q-152 0 -232 80.5t-80 190.5zM299 285q0 -68 42 -110t97 -42q96 0 178 60q-4 92 -4 278q-35 -2 -68 -5.5t-80.5 -16t-81.5 -31.5 t-58.5 -53.5t-24.5 -79.5zM196 1325q0 52 34 89.5t81 37.5q46 0 80.5 -37.5t34.5 -89.5t-34.5 -88.5t-80.5 -36.5q-47 0 -81 36.5t-34 88.5zM573 1325q0 53 33.5 90t81.5 37q46 0 80 -37.5t34 -89.5t-34 -88.5t-80 -36.5q-48 0 -81.5 36.5t-33.5 88.5z" />
<glyph unicode="&#xe5;" d="M55 244q0 97 60.5 170t157.5 110t214 37q63 0 125 -16q4 86 4 127q0 61 -5.5 105.5t-20.5 84.5t-45.5 61t-75.5 21q-67 0 -103 -47q-26 -34 -26 -79q0 -17 4 -36q-54 -43 -115 -43q-49 0 -83.5 30t-34.5 79q0 95 109 156t249 61q189 0 297 -82t108 -238q0 -30 -2 -122 t-2 -181q0 -243 25 -295q35 -67 143 -67v-45q-38 -24 -106 -43t-123 -19q-66 0 -115.5 50t-56.5 100q-36 -71 -114.5 -110.5t-155.5 -39.5q-152 0 -232 80.5t-80 190.5zM299 285q0 -68 42 -110t97 -42q96 0 178 60q-4 92 -4 278q-35 -2 -68 -5.5t-80.5 -16t-81.5 -31.5 t-58.5 -53.5t-24.5 -79.5zM297 1337q0 -85 54 -132.5t133 -47.5q101 0 167 56t66 141q0 81 -55 129.5t-135 48.5q-101 0 -165.5 -54t-64.5 -141zM430 1360q0 48 20.5 71t49.5 23q30 0 56 -31.5t26 -89.5q0 -49 -21 -73.5t-51 -24.5q-31 0 -55.5 33t-24.5 92z" />
<glyph unicode="&#xe6;" horiz-adv-x="1564" d="M55 244q0 63 24 114.5t67 87t96 62t119 42t127 24t128 12.5q0 8 1 18.5t1 13.5q0 50 -1.5 83.5t-6 75t-14.5 68t-25.5 51.5t-41.5 36.5t-60 11.5q-59 0 -93 -42.5t-34 -96.5q0 -4 1 -11t1 -12q-50 -34 -102 -34q-55 0 -93 27t-38 73q0 61 53 112t134.5 78t170.5 27 q219 0 315 -141q118 131 279 131q78 0 141.5 -18t104.5 -46.5t72 -68.5t47 -77t25.5 -80t12 -71t2.5 -55v-47l-18 -8q-26 -11 -64.5 -15.5t-72.5 -5.5l-465 -31q4 -180 87.5 -279t205.5 -99q90 0 182 42t162 146q8 -31 8 -63q0 -90 -66 -162t-165.5 -108t-208.5 -36 q-116 0 -213 47.5t-156 143.5q-44 -78 -138 -134.5t-179 -56.5q-152 0 -232 80.5t-80 190.5zM319 285q0 -19 3 -29q10 -60 49 -91.5t88 -31.5q51 0 106.5 27.5t87.5 64.5q-41 104 -41 240v39q-46 -8 -90.5 -23t-93.5 -40t-79 -65.5t-30 -90.5zM860 618l363 62 q-2 101 -48 175.5t-124 74.5q-41 0 -73.5 -26t-54.5 -74.5t-36.5 -97.5t-26.5 -114z" />
<glyph unicode="&#xe7;" horiz-adv-x="985" d="M76 475q0 160 66 295.5t183.5 215t260.5 79.5q145 0 244.5 -53t99.5 -142q0 -54 -39 -90.5t-90 -36.5q-55 0 -94 45q-2 57 -39 96.5t-105 39.5q-69 0 -123 -56.5t-82 -143t-28 -183.5q0 -98 31.5 -185t96.5 -144.5t150 -57.5q212 0 334 184q12 -38 12 -72 q0 -113 -107 -193.5t-265 -95.5q-9 -20 -9 -38q0 -12 14.5 -21t37 -14t48 -15.5t48 -25.5t37 -44.5t14.5 -70.5q0 -94 -71 -167t-181 -73q-92 0 -139 37.5t-47 89.5q0 30 16 60q28 -28 62 -42t53 -16t49 -2q36 0 68 16t32 44q0 17 -31 33t-68 29t-68 43.5t-31 72.5 q0 50 76 102q-89 5 -163 37t-131.5 92t-89.5 154.5t-32 216.5z" />
<glyph unicode="&#xe8;" d="M76 465q0 165 56.5 299t163 212.5t243.5 78.5q80 0 144.5 -19.5t106 -49t72 -72.5t46 -81t24 -84.5t10.5 -74t2 -56.5v-47l-18 -8q-51 -20 -138 -20l-454 6q2 -23 2 -76q4 -149 89.5 -234t190.5 -85q90 0 182.5 42t162.5 146q9 -32 9 -64q0 -30 -9 -60 q-17 -60 -59.5 -103.5t-102.5 -76t-130 -49t-141 -16.5q-91 0 -169.5 28.5t-142.5 86t-101.5 154.5t-38.5 223zM336 645q59 1 178 6t184 6q-1 49 -11 95.5t-30 87.5t-54 65.5t-77 24.5q-41 0 -73 -22t-54 -64.5t-36.5 -89t-26.5 -109.5zM199 1503l90 -155q118 -191 311 -191 q35 0 76 18.5t41 26.5q-36 12 -65 31t-51.5 47t-34.5 47t-31 53q-17 32 -29 49t-31.5 37t-46 28.5t-61.5 8.5h-168z" />
<glyph unicode="&#xe9;" d="M76 465q0 165 56.5 299t163 212.5t243.5 78.5q80 0 144.5 -19.5t106 -49t72 -72.5t46 -81t24 -84.5t10.5 -74t2 -56.5v-47l-18 -8q-51 -20 -138 -20l-454 6q2 -23 2 -76q4 -149 89.5 -234t190.5 -85q90 0 182.5 42t162.5 146q17 -65 0 -124.5t-59.5 -103t-102.5 -76 t-130 -49t-141 -16.5q-91 0 -169.5 28.5t-142.5 86t-101.5 154.5t-38.5 223zM336 645q59 1 178 6t184 6q-1 49 -11 95.5t-30 87.5t-54 65.5t-77 24.5q-41 0 -73 -22t-54 -64.5t-36.5 -89t-26.5 -109.5zM401 1202q37 12 66 31t51.5 47t34.5 47t31 53q17 32 28.5 49t31.5 37 t46 28.5t62 8.5h168l-91 -155q-117 -191 -311 -191q-35 0 -76 18.5t-41 26.5z" />
<glyph unicode="&#xea;" d="M76 465q0 165 56.5 299t163 212.5t243.5 78.5q80 0 144.5 -19.5t106 -49t72 -72.5t46 -81t24 -84.5t10.5 -74t2 -56.5v-47l-18 -8q-51 -20 -138 -20l-454 6q2 -23 2 -76q4 -149 89.5 -234t190.5 -85q90 0 182.5 42t162.5 146q9 -32 9 -64q0 -30 -9 -60 q-17 -60 -59.5 -103.5t-102.5 -76t-130 -49t-141 -16.5q-91 0 -169.5 28.5t-142.5 86t-101.5 154.5t-38.5 223zM336 645q59 1 178 6t184 6q-1 49 -11 95.5t-30 87.5t-54 65.5t-77 24.5q-41 0 -73 -22t-54 -64.5t-36.5 -89t-26.5 -109.5zM190 1202q25 5 49.5 21.5t52 48.5 t41 49t43.5 59q42 58 77.5 90.5t74.5 32.5h49q35 0 67 -21.5t49 -43t50 -68.5q23 -34 39 -55.5t39 -48t46.5 -42.5t47.5 -22q0 -8 -40.5 -26.5t-76.5 -18.5q-41 0 -71 6t-50 17t-36 26t-29 34.5t-29 41.5q-12 19 -21 50l-9 32l-9 -32q-9 -31 -22 -50q-15 -21 -26.5 -40 t-28 -34.5t-36.5 -26.5t-51 -17.5t-73 -6.5q-35 0 -76 18.5t-41 26.5z" />
<glyph unicode="&#xeb;" d="M76 465q0 165 56.5 299t163 212.5t243.5 78.5q80 0 144.5 -19.5t106 -49t72 -72.5t46 -81t24 -84.5t10.5 -74t2 -56.5v-47l-18 -8q-51 -20 -138 -20l-454 6q2 -23 2 -76q4 -149 89.5 -234t190.5 -85q90 0 182.5 42t162.5 146q9 -32 9 -64q0 -30 -9 -60 q-17 -60 -59.5 -103.5t-102.5 -76t-130 -49t-141 -16.5q-91 0 -169.5 28.5t-142.5 86t-101.5 154.5t-38.5 223zM336 645q59 1 178 6t184 6q-1 49 -11 95.5t-30 87.5t-54 65.5t-77 24.5q-41 0 -73 -22t-54 -64.5t-36.5 -89t-26.5 -109.5zM229 1325q0 52 34 89.5t81 37.5 q46 0 80.5 -37.5t34.5 -89.5t-34.5 -88.5t-80.5 -36.5q-47 0 -81 36.5t-34 88.5zM606 1325q0 53 33.5 90t81.5 37q46 0 80 -37.5t34 -89.5t-34 -88.5t-80 -36.5q-48 0 -81.5 36.5t-33.5 88.5z" />
<glyph unicode="&#xec;" horiz-adv-x="614" d="M-63 1503l90 -155q117 -191 311 -191q35 0 76 18.5t41 26.5q-37 12 -66 31t-51.5 47t-34.5 47t-31 53q-22 42 -38 64t-49.5 40.5t-80.5 18.5h-167zM90 946v37q117 72 221 72q148 0 148 -195q0 -30 -5 -101.5t-5 -111.5v-201q0 -286 22 -446h-287l11 698q0 64 -11 113.5 t-25 73.5t-31 39.5t-26 18.5t-12 3z" />
<glyph unicode="&#xed;" horiz-adv-x="614" d="M90 946v37q117 72 221 72q148 0 148 -195q0 -30 -5 -101.5t-5 -111.5v-201q0 -286 22 -446h-287l11 698q0 64 -11 113.5t-25 73.5t-31 39.5t-26 18.5t-12 3zM115 1202q36 12 65 31t51.5 47t34.5 47t31 53q17 32 29 49t31.5 37t46 28.5t61.5 8.5h168l-90 -155 q-118 -191 -312 -191q-35 0 -75.5 18.5t-40.5 26.5z" />
<glyph unicode="&#xee;" horiz-adv-x="614" d="M-45 1202q25 5 49.5 21.5t52 48.5t41 49t43.5 59q86 123 152 123h49q35 0 67 -21.5t49 -43t50 -68.5q32 -47 52.5 -74t54 -56.5t65.5 -37.5q0 -8 -41 -26.5t-76 -18.5q-34 0 -60.5 4t-45.5 12t-34.5 19t-27 25t-23.5 30t-24 35t-22 50l-9 32l-9 -32q-8 -31 -21 -50 q-15 -21 -26.5 -40t-28 -34.5t-36.5 -26.5t-51 -17.5t-73 -6.5q-36 0 -76.5 18.5t-40.5 26.5zM90 946v37q117 72 221 72q148 0 148 -195q0 -30 -5 -101.5t-5 -111.5v-201q0 -286 22 -446h-287l11 698q0 64 -11 113.5t-25 73.5t-31 39.5t-26 18.5t-12 3z" />
<glyph unicode="&#xef;" horiz-adv-x="614" d="M12 1325q0 52 34.5 89.5t80.5 37.5t80.5 -37.5t34.5 -89.5t-34.5 -88.5t-80.5 -36.5t-80.5 36.5t-34.5 88.5zM90 946v37q117 72 221 72q148 0 148 -195q0 -30 -5 -101.5t-5 -111.5v-201q0 -286 22 -446h-287l11 698q0 64 -11 113.5t-25 73.5t-31 39.5t-26 18.5t-12 3z M389 1325q0 53 33.5 90t81.5 37q46 0 80 -37.5t34 -89.5t-34 -88.5t-80 -36.5q-48 0 -81.5 36.5t-33.5 88.5z" />
<glyph unicode="&#xf1;" horiz-adv-x="1230" d="M82 946v37q117 72 221 72q60 0 96 -34.5t43 -82.5l-2 -57q36 36 66.5 62.5t75.5 57.5t96 47.5t104 16.5q125 0 203.5 -78t81.5 -192q-3 -173 -3 -341v-84q1 -208 23 -370h-278l-3 22q-3 22 -3 44q0 80 2 264.5t2 265.5v20q0 132 -25 192q-27 66 -98 66q-80 0 -136.5 -27 t-107.5 -73q0 -487 6 -612q8 -109 17 -162h-287l2 63l8 635v9q0 73 -16 125q-16 56 -35.5 77.5t-36.5 28.5zM262 1239q68 51 121 51q34 0 146.5 -34.5t193.5 -34.5q87 0 167.5 56.5t98.5 139.5q-82 -55 -142 -55q-43 0 -160 35t-173 35q-85 0 -161 -55.5t-91 -137.5z" />
<glyph unicode="&#xf2;" horiz-adv-x="1159" d="M76 502q0 -11 1 -27t5.5 -52.5t13 -72.5t25.5 -82t39.5 -85.5t59 -79t81 -67.5t107.5 -45.5t137 -17.5q154 0 278.5 79.5t192 208.5t67.5 278q0 127 -38.5 229t-104.5 166t-149.5 97.5t-176.5 33.5q-154 0 -277.5 -74.5t-192 -203t-68.5 -285.5zM354 586q0 58 11 118 t32.5 114.5t59 89t84.5 34.5q108 0 185 -136t77 -331q0 -165 -59 -274t-144 -109q-69 0 -126 67t-88.5 180.5t-31.5 246.5zM252 1503l90 -155q118 -191 311 -191q35 0 76 18.5t41 26.5q-36 12 -65 31t-51.5 47t-34.5 47t-31 53q-17 32 -29 49t-31.5 37t-46 28.5t-61.5 8.5 h-168z" />
<glyph unicode="&#xf3;" horiz-adv-x="1159" d="M76 502q0 -11 1 -27t5.5 -52.5t13 -72.5t25.5 -82t39.5 -85.5t59 -79t81 -67.5t107.5 -45.5t137 -17.5q154 0 278.5 79.5t192 208.5t67.5 278q0 127 -38.5 229t-104.5 166t-149.5 97.5t-176.5 33.5q-154 0 -277.5 -74.5t-192 -203t-68.5 -285.5zM354 586q0 58 11 118 t32.5 114.5t59 89t84.5 34.5q108 0 185 -136t77 -331q0 -165 -59 -274t-144 -109q-69 0 -126 67t-88.5 180.5t-31.5 246.5zM379 1202q37 12 66 31t51.5 47t34.5 47t31 53q22 42 38 64t49.5 40.5t80.5 18.5h167l-90 -155q-117 -191 -311 -191q-35 0 -76 18.5t-41 26.5z" />
<glyph unicode="&#xf4;" horiz-adv-x="1159" d="M76 502q0 -11 1 -27t5.5 -52.5t13 -72.5t25.5 -82t39.5 -85.5t59 -79t81 -67.5t107.5 -45.5t137 -17.5q154 0 278.5 79.5t192 208.5t67.5 278q0 127 -38.5 229t-104.5 166t-149.5 97.5t-176.5 33.5q-154 0 -277.5 -74.5t-192 -203t-68.5 -285.5zM354 586q0 58 11 118 t32.5 114.5t59 89t84.5 34.5q108 0 185 -136t77 -331q0 -165 -59 -274t-144 -109q-69 0 -126 67t-88.5 180.5t-31.5 246.5zM229 1202q25 5 49.5 21.5t52 48.5t41 49t43.5 59q42 58 77.5 90.5t74.5 32.5h49q35 0 67 -21.5t49 -43t50 -68.5q23 -34 39 -55.5t39 -48t46.5 -42.5 t47.5 -22q0 -8 -40.5 -26.5t-76.5 -18.5q-41 0 -71 6t-50 17t-36 26t-29 34.5t-29 41.5q-12 19 -21 50l-9 32l-9 -32q-9 -31 -22 -50q-15 -21 -26.5 -40t-28 -34.5t-36.5 -26.5t-51 -17.5t-73 -6.5q-35 0 -76 18.5t-41 26.5z" />
<glyph unicode="&#xf5;" horiz-adv-x="1159" d="M76 502q0 -11 1 -27t5.5 -52.5t13 -72.5t25.5 -82t39.5 -85.5t59 -79t81 -67.5t107.5 -45.5t137 -17.5q154 0 278.5 79.5t192 208.5t67.5 278q0 127 -38.5 229t-104.5 166t-149.5 97.5t-176.5 33.5q-154 0 -277.5 -74.5t-192 -203t-68.5 -285.5zM354 586q0 58 11 118 t32.5 114.5t59 89t84.5 34.5q108 0 185 -136t77 -331q0 -165 -59 -274t-144 -109q-69 0 -126 67t-88.5 180.5t-31.5 246.5zM219 1239q68 51 121 51q34 0 146.5 -34.5t193.5 -34.5q87 0 167.5 56.5t98.5 139.5q-82 -55 -142 -55q-43 0 -160 35t-173 35q-85 0 -161 -55.5 t-91 -137.5z" />
<glyph unicode="&#xf6;" horiz-adv-x="1159" d="M76 502q0 -11 1 -27t5.5 -52.5t13 -72.5t25.5 -82t39.5 -85.5t59 -79t81 -67.5t107.5 -45.5t137 -17.5q154 0 278.5 79.5t192 208.5t67.5 278q0 127 -38.5 229t-104.5 166t-149.5 97.5t-176.5 33.5q-154 0 -277.5 -74.5t-192 -203t-68.5 -285.5zM354 586q0 58 11 118 t32.5 114.5t59 89t84.5 34.5q108 0 185 -136t77 -331q0 -165 -59 -274t-144 -109q-69 0 -126 67t-88.5 180.5t-31.5 246.5zM287 1325q0 52 34 89.5t81 37.5q46 0 80.5 -37.5t34.5 -89.5t-34.5 -88.5t-80.5 -36.5q-47 0 -81 36.5t-34 88.5zM664 1325q0 53 33.5 90t81.5 37 q46 0 80 -37.5t34 -89.5t-34 -88.5t-80 -36.5q-48 0 -81.5 36.5t-33.5 88.5z" />
<glyph unicode="&#xf7;" horiz-adv-x="1001" d="M141 446v162q0 -8 426 -8q93 0 137 0.5t89 5.5t59 15q-3 -37 -14 -65t-24.5 -46.5t-39 -31.5t-45.5 -19.5t-56 -10t-59 -4t-65 -0.5q-27 0 -191.5 2.5t-177.5 2.5q-30 0 -39 -3zM340 205q0 59 42.5 101t100.5 42q56 0 97 -42t41 -101q0 -57 -41 -97t-97 -40 q-58 0 -100.5 40t-42.5 97zM340 838q0 59 42.5 101t100.5 42q56 0 97 -42t41 -101q0 -57 -41 -97.5t-97 -40.5q-58 0 -100.5 40.5t-42.5 97.5z" />
<glyph unicode="&#xf8;" horiz-adv-x="1159" d="M8 66l142 135q-32 60 -50.5 135t-21 108t-2.5 58q0 157 68.5 285.5t192 203t277.5 74.5q168 0 293 -102q73 75 105 114q48 -30 61 -47q14 -14 17 -27t-7.5 -29t-21 -27.5t-33.5 -33t-35 -34.5l-4 -5q94 -135 94 -335q0 -149 -67.5 -278t-192 -208.5t-278.5 -79.5 q-209 0 -330 133l-121 -124zM354 586q0 -84 15 -172l180 174l188 194q-37 75 -88 117.5t-108 42.5q-47 0 -84.5 -34.5t-59 -89t-32.5 -114.5t-11 -118zM399 295q35 -95 86.5 -149t114.5 -54q85 0 144 109t59 274q0 109 -25 197l-235 -234z" />
<glyph unicode="&#xf9;" horiz-adv-x="1218" d="M66 946v37q41 27 100 49.5t108 22.5t81.5 -15t48 -44.5t21 -61.5t5.5 -78q0 -62 -4 -196.5t-4 -206.5q0 -58 1.5 -95.5t9 -82t21 -69.5t38.5 -42t61 -17q79 0 141 27.5t99 69.5q0 23 2 173.5t2 268.5q0 227 -105 260v37q30 23 92 47.5t111 24.5q51 0 84.5 -15t49.5 -44 t22 -59t6 -71q0 -6 -1 -50.5t-2 -170t-1 -330.5q0 -165 45 -200q39 -35 116 -35v-45q-21 -16 -92 -39t-127 -23q-44 0 -79 18t-55.5 46.5t-32.5 58.5t-15 60q-59 -78 -156 -130.5t-211 -52.5q-118 0 -196 75t-80 175q0 25 1 133t1 262q0 164 -31 250q-9 28 -27.5 47.5 t-33.5 24.5zM297 1503l90 -155q118 -191 311 -191q35 0 76 18.5t41 26.5q-36 12 -65 31t-51.5 47t-34.5 47t-31 53q-17 32 -29 49t-31.5 37t-46 28.5t-61.5 8.5h-168z" />
<glyph unicode="&#xfa;" horiz-adv-x="1218" d="M66 946v37q41 27 100 49.5t108 22.5t81.5 -15t48 -44.5t21 -61.5t5.5 -78q0 -62 -4 -196.5t-4 -206.5q0 -58 1.5 -95.5t9 -82t21 -69.5t38.5 -42t61 -17q79 0 141 27.5t99 69.5q0 23 2 173.5t2 268.5q0 227 -105 260v37q30 23 92 47.5t111 24.5q51 0 84.5 -15t49.5 -44 t22 -59t6 -71q0 -6 -1 -50.5t-2 -170t-1 -330.5q0 -165 45 -200q39 -35 116 -35v-45q-21 -16 -92 -39t-127 -23q-44 0 -79 18t-55.5 46.5t-32.5 58.5t-15 60q-59 -78 -156 -130.5t-211 -52.5q-118 0 -196 75t-80 175q0 25 1 133t1 262q0 164 -31 250q-9 28 -27.5 47.5 t-33.5 24.5zM393 1202q37 12 66 31t51.5 47t34.5 47t31 53q22 42 38 64t49.5 40.5t80.5 18.5h167l-90 -155q-117 -191 -311 -191q-35 0 -76 18.5t-41 26.5z" />
<glyph unicode="&#xfb;" horiz-adv-x="1218" d="M66 946v37q41 27 100 49.5t108 22.5t81.5 -15t48 -44.5t21 -61.5t5.5 -78q0 -62 -4 -196.5t-4 -206.5q0 -58 1.5 -95.5t9 -82t21 -69.5t38.5 -42t61 -17q79 0 141 27.5t99 69.5q0 23 2 173.5t2 268.5q0 227 -105 260v37q30 23 92 47.5t111 24.5q51 0 84.5 -15t49.5 -44 t22 -59t6 -71q0 -6 -1 -50.5t-2 -170t-1 -330.5q0 -165 45 -200q39 -35 116 -35v-45q-21 -16 -92 -39t-127 -23q-44 0 -79 18t-55.5 46.5t-32.5 58.5t-15 60q-59 -78 -156 -130.5t-211 -52.5q-118 0 -196 75t-80 175q0 25 1 133t1 262q0 164 -31 250q-9 28 -27.5 47.5 t-33.5 24.5zM240 1202q25 5 49.5 21.5t52 48.5t41 49t43.5 59q42 58 77.5 90.5t74.5 32.5h49q35 0 67 -21.5t49 -43t50 -68.5q23 -34 39 -55.5t39 -48t46.5 -42.5t47.5 -22q0 -8 -40.5 -26.5t-76.5 -18.5q-41 0 -71 6t-50 17t-36 26t-29 34.5t-29 41.5q-12 19 -21 50l-9 32 l-9 -32q-9 -31 -22 -50q-15 -21 -26.5 -40t-28 -34.5t-36.5 -26.5t-51 -17.5t-73 -6.5q-35 0 -76 18.5t-41 26.5z" />
<glyph unicode="&#xfc;" horiz-adv-x="1218" d="M66 946v37q41 27 100 49.5t108 22.5t81.5 -15t48 -44.5t21 -61.5t5.5 -78q0 -62 -4 -196.5t-4 -206.5q0 -58 1.5 -95.5t9 -82t21 -69.5t38.5 -42t61 -17q79 0 141 27.5t99 69.5q0 23 2 173.5t2 268.5q0 227 -105 260v37q30 23 92 47.5t111 24.5q51 0 84.5 -15t49.5 -44 t22 -59t6 -71q0 -6 -1 -50.5t-2 -170t-1 -330.5q0 -165 45 -200q39 -35 116 -35v-45q-21 -16 -92 -39t-127 -23q-44 0 -79 18t-55.5 46.5t-32.5 58.5t-15 60q-59 -78 -156 -130.5t-211 -52.5q-118 0 -196 75t-80 175q0 25 1 133t1 262q0 164 -31 250q-9 28 -27.5 47.5 t-33.5 24.5zM301 1325q0 52 34 89.5t81 37.5q46 0 80.5 -37.5t34.5 -89.5t-34.5 -88.5t-80.5 -36.5q-47 0 -81 36.5t-34 88.5zM678 1325q0 53 33.5 90t81.5 37q46 0 80 -37.5t34 -89.5t-34 -88.5t-80 -36.5q-48 0 -81.5 36.5t-33.5 88.5z" />
<glyph unicode="&#xfd;" horiz-adv-x="1007" d="M441 1232q37 12 66 31t51.5 47t34.5 47t31 53q22 42 38 64t49.5 40.5t80.5 18.5h167l-90 -155q-117 -191 -311 -191q-35 0 -76 18.5t-41 26.5zM6 -305q20 -25 64.5 -41t89.5 -16q76 0 129.5 28.5t75.5 81.5l96 211l24 43l-24 10q-24 9 -53.5 37.5t-40.5 65.5l-179 569 q-19 63 -43.5 113t-45 77.5t-40.5 46t-30 24.5t-15 7l-2 37q36 26 89.5 46t99.5 20q86 0 126 -41t64 -131q20 -116 160 -508q2 -4 24.5 -50.5t24.5 -52.5l10 42q10 43 21 71l129 369q28 79 28 129q0 49 -34 69l-4 37q28 27 75.5 46.5t89.5 19.5q72 0 72 -76q0 -53 -51 -180 l-408 -1004q-22 -54 -37 -87.5t-39 -79t-48.5 -72.5t-57.5 -54t-74 -39t-90 -12q-92 0 -144 70q-38 50 -38 117q0 27 6 57z" />
<glyph unicode="&#xff;" horiz-adv-x="1007" d="M6 -305q20 -25 64.5 -41t89.5 -16q76 0 129.5 28.5t75.5 81.5l96 211l24 43l-24 10q-24 9 -53.5 37.5t-40.5 65.5l-179 569q-19 63 -43.5 113t-45 77.5t-40.5 46t-30 24.5t-15 7l-2 37q36 26 89.5 46t99.5 20q86 0 126 -41t64 -131q20 -116 160 -508q2 -4 24.5 -50.5 t24.5 -52.5l10 42q10 43 21 71l129 369q28 79 28 129q0 49 -34 69l-4 37q28 27 75.5 46.5t89.5 19.5q72 0 72 -76q0 -53 -51 -180l-408 -1004q-22 -54 -37 -87.5t-39 -79t-48.5 -72.5t-57.5 -54t-74 -39t-90 -12q-92 0 -144 70q-38 50 -38 117q0 27 6 57zM254 1325 q0 52 34 89.5t81 37.5q46 0 80.5 -37.5t34.5 -89.5t-34.5 -88.5t-80.5 -36.5q-47 0 -81 36.5t-34 88.5zM631 1325q0 53 33.5 90t81.5 37q46 0 80 -37.5t34 -89.5t-34 -88.5t-80 -36.5q-48 0 -81.5 36.5t-33.5 88.5z" />
<glyph unicode="&#x152;" horiz-adv-x="1781" d="M92 637q0 203 80 367.5t231 261t347 96.5l477 -2l377 6q35 -52 41.5 -119.5t-15.5 -128.5h-47q-9 44 -67 75t-123 34l-181 8q0 -29 -5 -204.5t-7 -264.5h266q30 0 46 1t40 10t41 26q9 -41 9 -70q0 -127 -185 -127q-38 0 -112 2t-105 2v-125q0 -131 8 -327h363q65 0 98 43 q8 -39 8 -68q0 -76 -54.5 -104.5t-174.5 -28.5h-690q-104 0 -200 24t-181 75t-148.5 125t-100 180t-36.5 233zM395 743q0 -172 60.5 -311.5t165 -218t231.5 -78.5h68v12v945q0 82 -11 143h-184q-61 0 -119.5 -33.5t-105.5 -94.5t-76 -156t-29 -208z" />
<glyph unicode="&#x153;" horiz-adv-x="1759" d="M76 502q0 157 68.5 285.5t192 203t277.5 74.5q96 0 192 -46t144 -116q45 64 130.5 108t174.5 44q80 0 145 -19.5t106.5 -49t72 -72.5t46 -81t24 -84.5t10.5 -74t2 -56.5v-47l-19 -8q-50 -20 -137 -20l-465 6q1 -169 88 -282t205 -113q90 0 182.5 42t161.5 146 q21 -81 -10 -152t-96 -117.5t-151 -73t-175 -26.5q-99 0 -195 45.5t-145 118.5q-55 -69 -155.5 -116.5t-204.5 -47.5q-74 0 -137 17.5t-107.5 45.5t-81 67.5t-59 79t-39.5 85.5t-25.5 82t-13 72.5t-5.5 52.5t-1 27zM354 586q0 -133 31.5 -246.5t88.5 -180.5t126 -67 q85 0 144 109t59 274q0 195 -77 331t-185 136q-47 0 -84.5 -34.5t-59 -89t-32.5 -114.5t-11 -118zM1034 645q59 1 187.5 6t193.5 6q-1 49 -11 95.5t-30 87.5t-54 65.5t-77 24.5q-82 0 -136.5 -79.5t-72.5 -205.5z" />
<glyph unicode="&#x178;" horiz-adv-x="1103" d="M0 1317l18 43q68 33 177 33q131 0 170 -50q37 -103 138.5 -303.5t135.5 -261.5l9 28q10 28 24 52l153 277q27 48 27 92t-29 90l19 43q62 24 131 24q57 0 117 -36q0 -36 -37 -129t-74 -152l-254 -401q0 -36 -1 -144t-1 -170q0 -245 16 -352h-295v33q0 84 1 200t1 150 q0 199 -2 233q-13 14 -43 64l-196 344q-27 49 -57.5 106t-43 80t-30.5 49t-34 37.5t-40 20.5zM225 1612q0 51 34.5 89t80.5 38t80.5 -38t34.5 -89q0 -52 -34.5 -88.5t-80.5 -36.5t-80.5 36.5t-34.5 88.5zM702 1612q0 52 34 89.5t81 37.5t81 -37.5t34 -89.5t-34 -88.5 t-81 -36.5t-81 36.5t-34 88.5z" />
<glyph unicode="&#x2c6;" horiz-adv-x="823" d="M47 1202q25 5 49.5 21.5t52 48.5t41 49t43.5 59q42 58 77.5 90.5t74.5 32.5h49q35 0 67 -21.5t49 -43t50 -68.5q23 -34 39 -55.5t39 -48t46.5 -42.5t47.5 -22q0 -8 -40.5 -26.5t-76.5 -18.5q-41 0 -71 6t-50 17t-36 26t-29 34.5t-29 41.5q-12 19 -21 50l-9 32l-9 -32 q-9 -31 -22 -50q-15 -21 -26.5 -40t-28 -34.5t-36.5 -26.5t-51 -17.5t-73 -6.5q-35 0 -76 18.5t-41 26.5z" />
<glyph unicode="&#x2da;" horiz-adv-x="1064" d="M313 1337q0 -85 54 -132.5t133 -47.5q101 0 167 56t66 141q0 81 -55 129.5t-135 48.5q-101 0 -165.5 -54t-64.5 -141zM446 1360q0 48 20.5 71t49.5 23q30 0 56 -31.5t26 -89.5q0 -49 -21 -73.5t-51 -24.5q-31 0 -55.5 33t-24.5 92z" />
<glyph unicode="&#x2dc;" horiz-adv-x="778" d="M31 1239q68 51 121 51q34 0 146.5 -34.5t193.5 -34.5q87 0 167.5 56.5t98.5 139.5q-82 -55 -142 -55q-43 0 -160 35t-173 35q-85 0 -161 -55.5t-91 -137.5z" />
<glyph unicode="&#x2000;" horiz-adv-x="930" />
<glyph unicode="&#x2001;" horiz-adv-x="1861" />
<glyph unicode="&#x2002;" horiz-adv-x="930" />
<glyph unicode="&#x2003;" horiz-adv-x="1861" />
<glyph unicode="&#x2004;" horiz-adv-x="620" />
<glyph unicode="&#x2005;" horiz-adv-x="465" />
<glyph unicode="&#x2006;" horiz-adv-x="310" />
<glyph unicode="&#x2007;" horiz-adv-x="310" />
<glyph unicode="&#x2008;" horiz-adv-x="232" />
<glyph unicode="&#x2009;" horiz-adv-x="372" />
<glyph unicode="&#x200a;" horiz-adv-x="103" />
<glyph unicode="&#x2010;" horiz-adv-x="632" d="M39 422v162q0 -9 262 -9q93 0 136.5 0.5t89 5.5t59.5 15q-3 -32 -10.5 -57.5t-22 -43.5t-29 -31t-39 -21t-43 -13t-50.5 -7t-52 -2.5t-57 -0.5q-27 0 -109.5 2t-95.5 2q-31 0 -39 -2z" />
<glyph unicode="&#x2011;" horiz-adv-x="632" d="M39 422v162q0 -9 262 -9q93 0 136.5 0.5t89 5.5t59.5 15q-3 -32 -10.5 -57.5t-22 -43.5t-29 -31t-39 -21t-43 -13t-50.5 -7t-52 -2.5t-57 -0.5q-27 0 -109.5 2t-95.5 2q-31 0 -39 -2z" />
<glyph unicode="&#x2012;" horiz-adv-x="632" d="M39 422v162q0 -9 262 -9q93 0 136.5 0.5t89 5.5t59.5 15q-3 -32 -10.5 -57.5t-22 -43.5t-29 -31t-39 -21t-43 -13t-50.5 -7t-52 -2.5t-57 -0.5q-27 0 -109.5 2t-95.5 2q-31 0 -39 -2z" />
<glyph unicode="&#x2013;" horiz-adv-x="962" d="M59 422v160q0 -9 570 -9h102q48 0 85 1t62.5 5t34.5 11q-7 -43 -28.5 -74.5t-49.5 -49t-68 -28t-76 -13.5t-81 -3q-27 0 -264 1t-250 1q-28 0 -37 -2z" />
<glyph unicode="&#x2014;" horiz-adv-x="1431" d="M53 422v160q0 -9 1041 -9h102q48 0 85 1t62.5 5t34.5 11q-7 -43 -28.5 -74.5t-49.5 -49t-68 -28t-76 -13.5t-81 -3q-27 0 -499.5 1t-485.5 1q-29 0 -37 -2z" />
<glyph unicode="&#x2018;" horiz-adv-x="559" d="M98 1151q0 80 78 186.5t225 200.5l52 -65q-129 -124 -129 -240q0 -28 5.5 -46.5t16 -26t17 -10t16.5 -3.5q8 -49 -32.5 -101.5t-102.5 -52.5q-61 0 -103.5 41t-42.5 117z" />
<glyph unicode="&#x2019;" horiz-adv-x="552" d="M96 1059q129 124 129 239q0 28 -5.5 46.5t-16.5 26t-17 10t-16 3.5q-8 49 32.5 101.5t102.5 52.5q61 0 103.5 -41t42.5 -117q0 -80 -78 -186.5t-226 -200.5z" />
<glyph unicode="&#x201a;" horiz-adv-x="528" d="M55 -225q67 63 98 125.5t31 113.5q0 28 -5.5 46.5t-16.5 26t-17 10t-16 3.5q-8 49 32.5 101.5t102.5 52.5q61 0 103.5 -41t42.5 -117q0 -80 -78 -186.5t-226 -200.5z" />
<glyph unicode="&#x201c;" horiz-adv-x="899" d="M98 1151q0 80 78 186.5t225 200.5l52 -65q-129 -124 -129 -240q0 -28 5.5 -46.5t16 -26t17 -10t16.5 -3.5q8 -49 -32.5 -101.5t-102.5 -52.5q-61 0 -103.5 41t-42.5 117zM504 1151q0 80 78 186.5t225 200.5l51 -65q-66 -64 -97.5 -127t-31.5 -113q0 -28 5.5 -46.5 t16.5 -26t17 -10t16 -3.5q9 -49 -32 -101.5t-103 -52.5q-61 0 -103 41t-42 117z" />
<glyph unicode="&#x201d;" horiz-adv-x="913" d="M80 1059q129 124 129 239q0 28 -5.5 46.5t-16.5 26t-17 10t-16 3.5q-9 49 32 101.5t103 52.5q61 0 103 -41t42 -117q0 -80 -78 -186.5t-225 -200.5zM485 1059q67 63 98 125.5t31 113.5q0 28 -5.5 46.5t-16.5 26t-17 10t-16 3.5q-8 49 32.5 101.5t102.5 52.5 q61 0 103.5 -41t42.5 -117q0 -80 -78 -186.5t-225 -200.5z" />
<glyph unicode="&#x201e;" horiz-adv-x="888" d="M55 -225q67 63 98 125.5t31 113.5q0 28 -5.5 46.5t-16.5 26t-17 10t-16 3.5q-8 49 32.5 101.5t102.5 52.5q61 0 103.5 -41t42.5 -117q0 -80 -78 -186.5t-226 -200.5zM461 -225q129 124 129 239q0 28 -5.5 46.5t-16.5 26t-17 10t-16 3.5q-9 49 32 101.5t103 52.5 q61 0 103 -41t42 -117q0 -80 -78 -186.5t-225 -200.5z" />
<glyph unicode="&#x2022;" horiz-adv-x="868" d="M137 506q0 122 86 207.5t209 85.5q122 0 208.5 -86t86.5 -207q0 -123 -86.5 -209t-208.5 -86q-123 0 -209 86t-86 209z" />
<glyph unicode="&#x2026;" horiz-adv-x="1357" d="M127 111q0 59 42.5 101t100.5 42q56 0 97 -42t41 -101q0 -57 -41 -97.5t-97 -40.5q-58 0 -100.5 40.5t-42.5 97.5zM547 111q0 59 42 101t101 42q56 0 96.5 -42t40.5 -101q0 -57 -40.5 -97.5t-96.5 -40.5q-59 0 -101 40.5t-42 97.5zM956 111q0 59 42.5 101t101.5 42 q56 0 96.5 -42t40.5 -101q0 -57 -40.5 -97.5t-96.5 -40.5q-59 0 -101.5 40.5t-42.5 97.5z" />
<glyph unicode="&#x202f;" horiz-adv-x="372" />
<glyph unicode="&#x2039;" horiz-adv-x="755" d="M41 506l16 14q16 14 27 27l268 319q55 65 110 99t95 34q51 0 89.5 -13.5t55.5 -29.5q-18 -6 -45 -27t-45 -39l-18 -18l-221 -303q-16 -22 -43 -42.5t-31 -20.5q4 0 31 -21t43 -43l221 -303l42 -37q41 -38 66 -47q-50 -39 -145 -39q-39 0 -95.5 33t-109.5 96l-268 320z " />
<glyph unicode="&#x203a;" horiz-adv-x="755" d="M43 55q18 -14 56.5 -26.5t88.5 -12.5q40 0 96 33t109 96l269 320l43 41l-16 14q-16 14 -27 27l-269 319q-56 66 -110.5 99.5t-94.5 33.5q-51 0 -89.5 -13.5t-55.5 -29.5q18 -6 45.5 -27t45.5 -39l18 -18l221 -303q15 -22 42 -42.5t31 -20.5q-4 0 -31 -21t-42 -43 l-221 -303l-42 -37q-41 -38 -67 -47z" />
<glyph unicode="&#x2044;" horiz-adv-x="1056" d="M-6 0q534 761 717.5 1032t187.5 320q43 45 109 45q32 0 53.5 -14.5t21.5 -41.5q0 -40 -29 -88t-88.5 -119.5t-82.5 -105.5l-709 -1028h-180z" />
<glyph unicode="&#x205f;" horiz-adv-x="465" />
<glyph unicode="&#x20ac;" horiz-adv-x="1183" d="M14 438l25 162q48 -10 102 -10q-2 0 -2 65q0 30 4 78h-51q-39 0 -78 -8l25 162q63 -10 131 -10q59 236 240.5 376t437.5 140q166 0 247 -43.5t81 -112.5q0 -58 -50 -117q-12 57 -97.5 93t-205.5 36q-152 0 -261.5 -106t-149.5 -269h379h75q112 0 199 33q-8 -46 -26 -78.5 t-42 -50.5t-54 -29.5t-64 -14t-71 -3.5t-75 0h-338q0 -75 8 -143h265h90q120 0 194 33q-9 -46 -27 -79.5t-42.5 -51.5t-55.5 -29t-65.5 -13.5t-73 -3.5t-78.5 0h-178q97 -333 418 -333q22 0 47.5 4t69.5 17.5t96 47t100 84.5v-18q0 -131 -101.5 -203t-275.5 -72 q-253 0 -412.5 126.5t-209.5 348.5h-68q-48 0 -82 -8z" />
<glyph unicode="&#x2122;" horiz-adv-x="1685" d="M55 1292l4 62q71 0 134 108h118l-16 -108h129q26 0 44.5 6.5t23.5 13.5l6 6q6 -18 6 -34q0 -41 -30.5 -67t-82.5 -26q-10 0 -48.5 1t-47.5 1q0 -66 -1 -152t-1 -138v-39q0 -10 1.5 -31.5t4.5 -28.5t9.5 -20t16 -17t23.5 -8t33 -4q37 0 79 16t50 29q2 -8 2 -26 q0 -72 -53.5 -120t-134.5 -48q-112 0 -157.5 54.5t-45.5 162.5q0 44 4 137.5t4 136.5q0 37 -7.5 64.5t-16 40t-21 19.5t-18 8t-11.5 1zM571 1292v41q24 14 67 25.5t83 11.5q45 0 71.5 -24.5t26.5 -63.5q0 -18 -2 -29q44 56 93 88.5t122 32.5q63 0 116 -35t69 -86 q28 37 51 59.5t66.5 42t97.5 19.5q72 0 130 -51t58 -115q0 -77 -1 -157.5t-1 -102.5q0 -197 16 -262h-190q-4 45 -4 135q0 37 1 110t1 109q0 122 -16.5 165.5t-79.5 43.5q-26 0 -52 -13t-37.5 -22t-33.5 -30q0 -13 -2 -86t-2 -123q0 -207 18 -289h-190q-5 88 -5 158 q0 39 1 116.5t1 116.5q0 94 -20.5 133t-75.5 39q-61 0 -135 -84q0 -342 16 -479h-196l8 459q0 49 -10 82.5t-25 45.5t-23 15.5t-12 3.5z" />
<glyph unicode="&#xe000;" horiz-adv-x="1055" d="M0 1055h1055v-1055h-1055v1055z" />
<glyph unicode="&#xfb01;" horiz-adv-x="1312" d="M72 969l10 61q40 4 74.5 32t40.5 85q8 80 38 147t74.5 111.5t96 77.5t108 51t104.5 26.5t91 8.5q103 0 198.5 -27.5t163.5 -86.5t68 -138q0 -57 -41 -97t-97 -40q-88 0 -133 65q4 20 4 29q0 62 -63 103.5t-152 41.5q-97 0 -168 -56.5t-71 -139.5v-13l10 -139 q0 -24 -2 -37h137q30 0 64.5 7.5t44.5 25.5q6 -21 6 -49q0 -125 -158 -125q-26 0 -48 4t-42 4v-121q0 -625 35 -780h-287q2 39 6 290t4 374q0 199 -18 225q-20 29 -44.5 49t-39.5 26zM788 946v37q119 72 222 72q147 0 147 -195q0 -30 -5 -101.5t-5 -111.5v-201 q0 -286 22 -446h-286l10 698q0 64 -11 113.5t-25 73.5t-31 39.5t-26 18.5t-12 3z" />
<glyph unicode="&#xfb02;" horiz-adv-x="1310" d="M72 969l10 61q40 4 74.5 32t40.5 85q8 80 38 147t74.5 111.5t96 77.5t108 51t104.5 26.5t91 8.5q105 0 209.5 -24.5t177.5 -72.5t73 -106q0 -27 -5.5 -85.5t-6.5 -72.5q-14 -257 -14 -575q0 -413 24 -633h-286q14 1206 2 1315q-37 45 -97.5 74.5t-128.5 29.5 q-97 0 -168 -56.5t-71 -139.5l10 -152q0 -24 -2 -37h137q30 0 64.5 7.5t44.5 25.5q6 -21 6 -49q0 -125 -158 -125q-26 0 -48 4t-42 4v-121q0 -625 35 -780h-287q2 39 6 290t4 374q0 199 -18 225q-20 29 -44.5 49t-39.5 26z" />
<glyph unicode="&#xfb03;" horiz-adv-x="1658" />
<glyph unicode="&#xfb04;" horiz-adv-x="2008" d="M1484 1458v37l28 15q29 16 81 31t100 15q96 0 132 -50t36 -154q0 -63 -6 -144q-13 -219 -13 -538v-261q0 -112 5 -217t18 -192h-287q6 314 6 582l5 643q0 101 -32.5 161.5t-72.5 71.5zM770 969l10 61q40 4 74.5 32t40.5 85q9 96 37.5 171.5t67 121.5t88.5 76t97.5 41.5 t98.5 11.5q108 0 176.5 -48.5t68.5 -115.5q0 -48 -34.5 -78.5t-81.5 -30.5q-41 0 -78 27q1 5 1 11q0 30 -20 56q-24 29 -83 29q-119 0 -119 -168q0 -7 1 -20t1 -21l10 -139q0 -24 -2 -37h178q30 0 64.5 7.5t44.5 25.5q6 -21 6 -49q0 -123 -176 -123q-16 0 -55.5 3t-57.5 3 v-121q0 -625 35 -780h-287q2 39 6 290t4 374q0 199 -18 225q-20 29 -44.5 49t-39.5 26zM72 969l10 61q40 4 74.5 32t40.5 85q9 96 37.5 171.5t67 121.5t88.5 76t97.5 41.5t98.5 11.5q108 0 176.5 -48.5t68.5 -115.5q0 -48 -34.5 -78.5t-81.5 -30.5q-41 0 -78 27q1 5 1 11 q0 30 -20 56q-24 29 -83 29q-119 0 -119 -168q0 -7 1 -20t1 -21l10 -139q0 -24 -2 -37h178q30 0 64.5 7.5t44.5 25.5q6 -21 6 -49q0 -123 -176 -123q-16 0 -55.5 3t-57.5 3v-121q0 -625 35 -780h-287q2 39 6 290t4 374q0 199 -18 225q-20 29 -44.5 49t-39.5 26z" />
<glyph horiz-adv-x="409" />
</font>
</defs>
</svg>
